M48
; DRILL file {KiCad (6.0.5-0)} date Sunday, 05 February 2023 at 23:58:50
; FORMAT={-:-/ absolute / inch / decimal}
; #@! TF.CreationDate,2023-02-05T23:58:50+00:00
; #@! TF.GenerationSoftware,Kicad,Pcbnew,(6.0.5-0)
; #@! TF.FileFunction,MixedPlating,1,2
FMAT,2
INCH
; #@! TA.AperFunction,Plated,PTH,ViaDrill
T1C0.0157
; #@! TA.AperFunction,Plated,PTH,ComponentDrill
T2C0.0276
; #@! TA.AperFunction,Plated,PTH,ComponentDrill
T3C0.0315
; #@! TA.AperFunction,Plated,PTH,ComponentDrill
T4C0.0394
; #@! TA.AperFunction,Plated,PTH,ComponentDrill
T5C0.0433
; #@! TA.AperFunction,Plated,PTH,ComponentDrill
T6C0.0469
%
G90
G05
T1
X4.0031Y4.7713
X4.4031Y4.7713
X5.3031Y4.7713
X5.3034Y4.4232
T2
X4.9031Y4.1713
X4.9031Y3.8713
T3
X4.288Y4.4711
X4.288Y4.3711
X4.288Y4.2711
X4.288Y4.1711
X4.288Y4.0711
X4.588Y4.4711
X4.588Y4.3711
X4.588Y4.2711
X4.588Y4.1711
X4.588Y4.0711
T4
X5.4031Y3.6665
X5.4031Y3.3713
T5
X6.7031Y4.5213
X6.7031Y4.4213
X6.7031Y4.3213
X6.7031Y4.2213
X6.7031Y4.1213
X6.7031Y4.0213
X6.7031Y3.9213
X6.7031Y3.8213
X6.7031Y3.7213
X6.7031Y3.6213
X6.7031Y3.5213
X6.7031Y3.4213
X6.7031Y3.3213
X6.7031Y3.2213
X6.8031Y4.5213
X6.8031Y4.3213
X6.8031Y4.2213
X6.8031Y3.3213
X6.9031Y4.5213
X6.9031Y4.3213
X6.9031Y4.2213
X7.0031Y4.5213
X7.0031Y4.3213
X7.0031Y4.2213
X7.1031Y4.5213
X7.1031Y4.3213
X7.1031Y4.2213
X7.2031Y4.5213
X7.2031Y4.3213
X7.2031Y4.2213
X7.3031Y4.5213
X7.3031Y4.4213
X7.3031Y4.3213
X7.3031Y4.2213
X7.3031Y4.1213
X7.3031Y4.0213
X7.3031Y3.9213
X7.3031Y3.8213
X7.3031Y3.7213
X7.3031Y3.6213
X7.3031Y3.5213
X7.3031Y3.4213
X7.3031Y3.3213
X7.3031Y3.2213
T6
X4.2888Y5.0694
X4.3031Y3.6713
X4.3031Y3.5713
X4.3031Y3.4713
X4.3888Y5.0694
X4.4888Y5.0694
X4.5888Y5.0694
X4.6888Y5.0694
X5.3031Y4.1713
X5.4031Y5.0713
X5.4031Y4.1713
X5.5031Y5.0713
X5.6031Y5.0713
T0
M30
