%TF.GenerationSoftware,KiCad,Pcbnew,(6.0.5-0)*%
%TF.CreationDate,2023-02-05T23:58:47+00:00*%
%TF.ProjectId,Resonator_v3,5265736f-6e61-4746-9f72-5f76332e6b69,rev?*%
%TF.SameCoordinates,PXfffec780PYc85b810*%
%TF.FileFunction,Soldermask,Top*%
%TF.FilePolarity,Negative*%
%FSLAX46Y46*%
G04 Gerber Fmt 4.6, Leading zero omitted, Abs format (unit mm)*
G04 Created by KiCad (PCBNEW (6.0.5-0)) date 2023-02-05 23:58:47*
%MOMM*%
%LPD*%
G01*
G04 APERTURE LIST*
G04 Aperture macros list*
%AMRoundRect*
0 Rectangle with rounded corners*
0 $1 Rounding radius*
0 $2 $3 $4 $5 $6 $7 $8 $9 X,Y pos of 4 corners*
0 Add a 4 corners polygon primitive as box body*
4,1,4,$2,$3,$4,$5,$6,$7,$8,$9,$2,$3,0*
0 Add four circle primitives for the rounded corners*
1,1,$1+$1,$2,$3*
1,1,$1+$1,$4,$5*
1,1,$1+$1,$6,$7*
1,1,$1+$1,$8,$9*
0 Add four rect primitives between the rounded corners*
20,1,$1+$1,$2,$3,$4,$5,0*
20,1,$1+$1,$4,$5,$6,$7,0*
20,1,$1+$1,$6,$7,$8,$9,0*
20,1,$1+$1,$8,$9,$2,$3,0*%
G04 Aperture macros list end*
%ADD10RoundRect,0.250000X-0.620000X-0.845000X0.620000X-0.845000X0.620000X0.845000X-0.620000X0.845000X0*%
%ADD11O,1.740000X2.190000*%
%ADD12C,1.400000*%
%ADD13O,1.400000X1.400000*%
%ADD14R,1.600000X1.600000*%
%ADD15O,1.600000X1.600000*%
%ADD16RoundRect,0.250000X0.845000X-0.620000X0.845000X0.620000X-0.845000X0.620000X-0.845000X-0.620000X0*%
%ADD17O,2.190000X1.740000*%
%ADD18C,1.600000*%
%ADD19R,2.000000X2.000000*%
%ADD20C,2.000000*%
G04 APERTURE END LIST*
D10*
%TO.C,J2*%
X134700000Y105950000D03*
D11*
X137240000Y105950000D03*
%TD*%
D10*
%TO.C,J3*%
X108935081Y128762052D03*
D11*
X111475081Y128762052D03*
X114015081Y128762052D03*
X116555081Y128762052D03*
X119095081Y128762052D03*
%TD*%
D12*
%TO.C,R1*%
X124540000Y98330000D03*
D13*
X124540000Y105950000D03*
%TD*%
D14*
%TO.C,J4*%
X108915000Y113565000D03*
D15*
X108915000Y111025000D03*
X108915000Y108485000D03*
X108915000Y105945000D03*
X108915000Y103405000D03*
X116535000Y103405000D03*
X116535000Y105945000D03*
X116535000Y108485000D03*
X116535000Y111025000D03*
X116535000Y113565000D03*
%TD*%
D16*
%TO.C,J5*%
X109300000Y88170000D03*
D17*
X109300000Y90710000D03*
X109300000Y93250000D03*
%TD*%
D18*
%TO.C,U1*%
X185500000Y81820000D03*
X185500000Y84360000D03*
X185500000Y86900000D03*
X185500000Y89440000D03*
X185500000Y91980000D03*
X185500000Y94520000D03*
X185500000Y97060000D03*
X185500000Y99600000D03*
X185500000Y102140000D03*
X185500000Y104680000D03*
X185500000Y107220000D03*
X185500000Y109760000D03*
X185500000Y112300000D03*
X185500000Y114840000D03*
X182960000Y114840000D03*
X180420000Y114840000D03*
X177880000Y114840000D03*
X175340000Y114840000D03*
X172800000Y114840000D03*
X170260000Y114840000D03*
X170260000Y112300000D03*
X170260000Y109760000D03*
X170260000Y107220000D03*
X170260000Y104680000D03*
X170260000Y102140000D03*
X170260000Y99600000D03*
X170260000Y97060000D03*
X170260000Y94520000D03*
X170260000Y91980000D03*
X170260000Y89440000D03*
X170260000Y86900000D03*
X170260000Y84360000D03*
X170260000Y81820000D03*
X172800000Y84360000D03*
X172800000Y109760000D03*
X172800000Y107220000D03*
X175340000Y109760000D03*
X175340000Y107220000D03*
X177880000Y109760000D03*
X177880000Y107220000D03*
X180420000Y109760000D03*
X180420000Y107220000D03*
X182960000Y109760000D03*
X182960000Y107220000D03*
%TD*%
D19*
%TO.C,1000uf1*%
X137240000Y85630000D03*
D20*
X137240000Y93130000D03*
%TD*%
D10*
%TO.C,J1*%
X137240000Y128810000D03*
D11*
X139780000Y128810000D03*
X142320000Y128810000D03*
%TD*%
M02*
