%TF.GenerationSoftware,KiCad,Pcbnew,(6.0.5-0)*%
%TF.CreationDate,2023-02-05T23:58:47+00:00*%
%TF.ProjectId,Resonator_v3,5265736f-6e61-4746-9f72-5f76332e6b69,rev?*%
%TF.SameCoordinates,PXfffec780PYc85b810*%
%TF.FileFunction,Other,User*%
%FSLAX46Y46*%
G04 Gerber Fmt 4.6, Leading zero omitted, Abs format (unit mm)*
G04 Created by KiCad (PCBNEW (6.0.5-0)) date 2023-02-05 23:58:47*
%MOMM*%
%LPD*%
G01*
G04 APERTURE LIST*
%ADD10C,0.050000*%
G04 APERTURE END LIST*
D10*
%TO.C,J2*%
X139010000Y109370000D02*
X132930000Y109370000D01*
X132930000Y109370000D02*
X132930000Y102570000D01*
X132930000Y102570000D02*
X139010000Y102570000D01*
X139010000Y102570000D02*
X139010000Y109370000D01*
%TO.C,J3*%
X120865081Y125382052D02*
X120865081Y132182052D01*
X107165081Y125382052D02*
X120865081Y125382052D01*
X120865081Y132182052D02*
X107165081Y132182052D01*
X107165081Y132182052D02*
X107165081Y125382052D01*
%TO.C,R1*%
X123490000Y106900000D02*
X123490000Y97380000D01*
X125590000Y106900000D02*
X123490000Y106900000D01*
X123490000Y97380000D02*
X125590000Y97380000D01*
X125590000Y97380000D02*
X125590000Y106900000D01*
%TO.C,J4*%
X118415000Y115965000D02*
X105265000Y115965000D01*
X118415000Y101015000D02*
X118415000Y115965000D01*
X105265000Y115965000D02*
X105265000Y101015000D01*
X105265000Y101015000D02*
X118415000Y101015000D01*
%TO.C,J5*%
X112680000Y95020000D02*
X105880000Y95020000D01*
X105880000Y86400000D02*
X112680000Y86400000D01*
X105880000Y95020000D02*
X105880000Y86400000D01*
X112680000Y86400000D02*
X112680000Y95020000D01*
%TO.C,1000uf1*%
X142490000Y89380000D02*
G75*
G03*
X142490000Y89380000I-5250000J0D01*
G01*
%TO.C,J1*%
X144090000Y132230000D02*
X135470000Y132230000D01*
X135470000Y125430000D02*
X144090000Y125430000D01*
X144090000Y125430000D02*
X144090000Y132230000D01*
X135470000Y132230000D02*
X135470000Y125430000D01*
%TD*%
M02*
