%TF.GenerationSoftware,KiCad,Pcbnew,(6.0.5-0)*%
%TF.CreationDate,2023-02-05T23:58:46+00:00*%
%TF.ProjectId,Resonator_v3,5265736f-6e61-4746-9f72-5f76332e6b69,rev?*%
%TF.SameCoordinates,PXfffec780PYc85b810*%
%TF.FileFunction,Copper,L2,Bot*%
%TF.FilePolarity,Positive*%
%FSLAX46Y46*%
G04 Gerber Fmt 4.6, Leading zero omitted, Abs format (unit mm)*
G04 Created by KiCad (PCBNEW (6.0.5-0)) date 2023-02-05 23:58:46*
%MOMM*%
%LPD*%
G01*
G04 APERTURE LIST*
G04 Aperture macros list*
%AMRoundRect*
0 Rectangle with rounded corners*
0 $1 Rounding radius*
0 $2 $3 $4 $5 $6 $7 $8 $9 X,Y pos of 4 corners*
0 Add a 4 corners polygon primitive as box body*
4,1,4,$2,$3,$4,$5,$6,$7,$8,$9,$2,$3,0*
0 Add four circle primitives for the rounded corners*
1,1,$1+$1,$2,$3*
1,1,$1+$1,$4,$5*
1,1,$1+$1,$6,$7*
1,1,$1+$1,$8,$9*
0 Add four rect primitives between the rounded corners*
20,1,$1+$1,$2,$3,$4,$5,0*
20,1,$1+$1,$4,$5,$6,$7,0*
20,1,$1+$1,$6,$7,$8,$9,0*
20,1,$1+$1,$8,$9,$2,$3,0*%
G04 Aperture macros list end*
%TA.AperFunction,ComponentPad*%
%ADD10RoundRect,0.250000X-0.620000X-0.845000X0.620000X-0.845000X0.620000X0.845000X-0.620000X0.845000X0*%
%TD*%
%TA.AperFunction,ComponentPad*%
%ADD11O,1.740000X2.190000*%
%TD*%
%TA.AperFunction,ComponentPad*%
%ADD12C,1.400000*%
%TD*%
%TA.AperFunction,ComponentPad*%
%ADD13O,1.400000X1.400000*%
%TD*%
%TA.AperFunction,ComponentPad*%
%ADD14R,1.600000X1.600000*%
%TD*%
%TA.AperFunction,ComponentPad*%
%ADD15O,1.600000X1.600000*%
%TD*%
%TA.AperFunction,ComponentPad*%
%ADD16RoundRect,0.250000X0.845000X-0.620000X0.845000X0.620000X-0.845000X0.620000X-0.845000X-0.620000X0*%
%TD*%
%TA.AperFunction,ComponentPad*%
%ADD17O,2.190000X1.740000*%
%TD*%
%TA.AperFunction,ComponentPad*%
%ADD18C,1.600000*%
%TD*%
%TA.AperFunction,ComponentPad*%
%ADD19R,2.000000X2.000000*%
%TD*%
%TA.AperFunction,ComponentPad*%
%ADD20C,2.000000*%
%TD*%
%TA.AperFunction,ViaPad*%
%ADD21C,2.000000*%
%TD*%
%TA.AperFunction,Conductor*%
%ADD22C,1.000000*%
%TD*%
G04 APERTURE END LIST*
D10*
%TO.P,J2,1,Pin_1*%
%TO.N,GND*%
X134700000Y105950000D03*
D11*
%TO.P,J2,2,Pin_2*%
%TO.N,+5V*%
X137240000Y105950000D03*
%TD*%
D10*
%TO.P,J3,1,Pin_1*%
%TO.N,+3V3*%
X108935081Y128762052D03*
D11*
%TO.P,J3,2,Pin_2*%
%TO.N,unconnected-(J3-Pad2)*%
X111475081Y128762052D03*
%TO.P,J3,3,Pin_3*%
%TO.N,GND*%
X114015081Y128762052D03*
%TO.P,J3,4,Pin_4*%
%TO.N,Net-(U1-Pad26)*%
X116555081Y128762052D03*
%TO.P,J3,5,Pin_5*%
%TO.N,Net-(U1-Pad25)*%
X119095081Y128762052D03*
%TD*%
D12*
%TO.P,R1,1*%
%TO.N,Net-(J5-Pad2)*%
X124540000Y98330000D03*
D13*
%TO.P,R1,2*%
%TO.N,Net-(J4-Pad9)*%
X124540000Y105950000D03*
%TD*%
D14*
%TO.P,J4,1,Pin_1*%
%TO.N,+3V3*%
X108915000Y113565000D03*
D15*
%TO.P,J4,2,Pin_2*%
%TO.N,Net-(J4-Pad2)*%
X108915000Y111025000D03*
%TO.P,J4,3,Pin_3*%
%TO.N,unconnected-(J4-Pad3)*%
X108915000Y108485000D03*
%TO.P,J4,4,Pin_4*%
%TO.N,unconnected-(J4-Pad4)*%
X108915000Y105945000D03*
%TO.P,J4,5,Pin_5*%
%TO.N,unconnected-(J4-Pad5)*%
X108915000Y103405000D03*
%TO.P,J4,6,Pin_6*%
%TO.N,unconnected-(J4-Pad6)*%
X116535000Y103405000D03*
%TO.P,J4,7,Pin_7*%
%TO.N,unconnected-(J4-Pad7)*%
X116535000Y105945000D03*
%TO.P,J4,8,Pin_8*%
%TO.N,unconnected-(J4-Pad8)*%
X116535000Y108485000D03*
%TO.P,J4,9,Pin_9*%
%TO.N,Net-(J4-Pad9)*%
X116535000Y111025000D03*
%TO.P,J4,10,Pin_10*%
%TO.N,+5V*%
X116535000Y113565000D03*
%TD*%
D16*
%TO.P,J5,1,Pin_1*%
%TO.N,GND*%
X109300000Y88170000D03*
D17*
%TO.P,J5,2,Pin_2*%
%TO.N,Net-(J5-Pad2)*%
X109300000Y90710000D03*
%TO.P,J5,3,Pin_3*%
%TO.N,+5V*%
X109300000Y93250000D03*
%TD*%
D18*
%TO.P,U1,1,GND*%
%TO.N,unconnected-(U1-Pad1)*%
X185500000Y81820000D03*
%TO.P,U1,2,0_RX1_CRX2_CS1*%
%TO.N,Net-(J4-Pad2)*%
X185500000Y84360000D03*
%TO.P,U1,3,1_TX1_CTX2_MISO1*%
%TO.N,unconnected-(U1-Pad3)*%
X185500000Y86900000D03*
%TO.P,U1,4,2_OUT2*%
%TO.N,unconnected-(U1-Pad4)*%
X185500000Y89440000D03*
%TO.P,U1,5,3_LRCLK2*%
%TO.N,unconnected-(U1-Pad5)*%
X185500000Y91980000D03*
%TO.P,U1,6,4_BCLK2*%
%TO.N,unconnected-(U1-Pad6)*%
X185500000Y94520000D03*
%TO.P,U1,7,5_IN2*%
%TO.N,unconnected-(U1-Pad7)*%
X185500000Y97060000D03*
%TO.P,U1,8,6_OUT1D*%
%TO.N,unconnected-(U1-Pad8)*%
X185500000Y99600000D03*
%TO.P,U1,9,7_RX2_OUT1A*%
%TO.N,unconnected-(U1-Pad9)*%
X185500000Y102140000D03*
%TO.P,U1,10,8_TX2_IN1*%
%TO.N,unconnected-(U1-Pad10)*%
X185500000Y104680000D03*
%TO.P,U1,11,9_OUT1C*%
%TO.N,unconnected-(U1-Pad11)*%
X185500000Y107220000D03*
%TO.P,U1,12,10_CS_MQSR*%
%TO.N,unconnected-(U1-Pad12)*%
X185500000Y109760000D03*
%TO.P,U1,13,11_MOSI_CTX1*%
%TO.N,unconnected-(U1-Pad13)*%
X185500000Y112300000D03*
%TO.P,U1,14,12_MISO_MQSL*%
%TO.N,unconnected-(U1-Pad14)*%
X185500000Y114840000D03*
%TO.P,U1,15,VBAT*%
%TO.N,unconnected-(U1-Pad15)*%
X182960000Y114840000D03*
%TO.P,U1,16,3V3*%
%TO.N,unconnected-(U1-Pad16)*%
X180420000Y114840000D03*
%TO.P,U1,17,GND*%
%TO.N,unconnected-(U1-Pad17)*%
X177880000Y114840000D03*
%TO.P,U1,18,PROGRAM*%
%TO.N,unconnected-(U1-Pad18)*%
X175340000Y114840000D03*
%TO.P,U1,19,ON_OFF*%
%TO.N,unconnected-(U1-Pad19)*%
X172800000Y114840000D03*
%TO.P,U1,20,13_SCK_CRX1_LED*%
%TO.N,unconnected-(U1-Pad20)*%
X170260000Y114840000D03*
%TO.P,U1,21,14_A0_TX3_SPDIF_OUT*%
%TO.N,unconnected-(U1-Pad21)*%
X170260000Y112300000D03*
%TO.P,U1,22,15_A1_RX3_SPDIF_IN*%
%TO.N,Net-(J1-Pad2)*%
X170260000Y109760000D03*
%TO.P,U1,23,16_A2_RX4_SCL1*%
%TO.N,unconnected-(U1-Pad23)*%
X170260000Y107220000D03*
%TO.P,U1,24,17_A3_TX4_SDA1*%
%TO.N,unconnected-(U1-Pad24)*%
X170260000Y104680000D03*
%TO.P,U1,25,18_A4_SDA0*%
%TO.N,Net-(U1-Pad25)*%
X170260000Y102140000D03*
%TO.P,U1,26,19_A5_SCL0*%
%TO.N,Net-(U1-Pad26)*%
X170260000Y99600000D03*
%TO.P,U1,27,20_A6_TX5_LRCLK1*%
%TO.N,unconnected-(U1-Pad27)*%
X170260000Y97060000D03*
%TO.P,U1,28,21_A7_RX5_BCLK1*%
%TO.N,unconnected-(U1-Pad28)*%
X170260000Y94520000D03*
%TO.P,U1,29,22_A8_CTX1*%
%TO.N,unconnected-(U1-Pad29)*%
X170260000Y91980000D03*
%TO.P,U1,30,23_A9_CRX1_MCLK1*%
%TO.N,unconnected-(U1-Pad30)*%
X170260000Y89440000D03*
%TO.P,U1,31,3V3*%
%TO.N,+3V3*%
X170260000Y86900000D03*
%TO.P,U1,32,GND*%
%TO.N,GND*%
X170260000Y84360000D03*
%TO.P,U1,33,VIN*%
%TO.N,+5V*%
X170260000Y81820000D03*
%TO.P,U1,34,VUSB*%
%TO.N,unconnected-(U1-Pad34)*%
X172800000Y84360000D03*
%TO.P,U1,35,24_A10_TX6_SCL2*%
%TO.N,unconnected-(U1-Pad35)*%
X172800000Y109760000D03*
%TO.P,U1,36,25_A11_RX6_SDA2*%
%TO.N,unconnected-(U1-Pad36)*%
X172800000Y107220000D03*
%TO.P,U1,37,26_A12_MOSI1*%
%TO.N,unconnected-(U1-Pad37)*%
X175340000Y109760000D03*
%TO.P,U1,38,27_A13_SCK1*%
%TO.N,unconnected-(U1-Pad38)*%
X175340000Y107220000D03*
%TO.P,U1,39,28_RX7*%
%TO.N,unconnected-(U1-Pad39)*%
X177880000Y109760000D03*
%TO.P,U1,40,29_TX7*%
%TO.N,unconnected-(U1-Pad40)*%
X177880000Y107220000D03*
%TO.P,U1,41,30_CRX3*%
%TO.N,unconnected-(U1-Pad41)*%
X180420000Y109760000D03*
%TO.P,U1,42,31_CTX3*%
%TO.N,unconnected-(U1-Pad42)*%
X180420000Y107220000D03*
%TO.P,U1,43,32_OUT1B*%
%TO.N,unconnected-(U1-Pad43)*%
X182960000Y109760000D03*
%TO.P,U1,44,33_MCLK2*%
%TO.N,unconnected-(U1-Pad44)*%
X182960000Y107220000D03*
%TD*%
D19*
%TO.P,1000uf1,1*%
%TO.N,+5V*%
X137240000Y85630000D03*
D20*
%TO.P,1000uf1,2*%
%TO.N,GND*%
X137240000Y93130000D03*
%TD*%
D10*
%TO.P,J1,1,Pin_1*%
%TO.N,GND*%
X137240000Y128810000D03*
D11*
%TO.P,J1,2,Pin_2*%
%TO.N,Net-(J1-Pad2)*%
X139780000Y128810000D03*
%TO.P,J1,3,Pin_3*%
%TO.N,+3V3*%
X142320000Y128810000D03*
%TD*%
D21*
%TO.N,GND*%
X134700000Y121190000D03*
X134707283Y112349590D03*
%TO.N,Net-(J4-Pad2)*%
X111840000Y121190000D03*
X101680000Y121190000D03*
%TD*%
D22*
%TO.N,GND*%
X134700000Y112356873D02*
X134707283Y112349590D01*
X134700000Y121190000D02*
X134700000Y112356873D01*
%TO.N,Net-(J4-Pad2)*%
X111840000Y121190000D02*
X101680000Y121190000D01*
%TD*%
M02*
