%TF.GenerationSoftware,KiCad,Pcbnew,(6.0.5-0)*%
%TF.CreationDate,2023-02-05T23:58:47+00:00*%
%TF.ProjectId,Resonator_v3,5265736f-6e61-4746-9f72-5f76332e6b69,rev?*%
%TF.SameCoordinates,PXfffec780PYc85b810*%
%TF.FileFunction,Legend,Top*%
%TF.FilePolarity,Positive*%
%FSLAX46Y46*%
G04 Gerber Fmt 4.6, Leading zero omitted, Abs format (unit mm)*
G04 Created by KiCad (PCBNEW (6.0.5-0)) date 2023-02-05 23:58:47*
%MOMM*%
%LPD*%
G01*
G04 APERTURE LIST*
%ADD10C,0.150000*%
%ADD11C,0.108000*%
%ADD12C,0.120000*%
%ADD13C,0.100000*%
G04 APERTURE END LIST*
D10*
X91460001Y146530000D02*
G75*
G03*
X91460001Y146530000I-1J0D01*
G01*
X131003123Y106180486D02*
X131003123Y105370962D01*
X130955504Y105275724D01*
X130907885Y105228105D01*
X130812647Y105180486D01*
X130669790Y105180486D01*
X130574552Y105228105D01*
X131003123Y105561439D02*
X130907885Y105513820D01*
X130717409Y105513820D01*
X130622171Y105561439D01*
X130574552Y105609058D01*
X130526933Y105704296D01*
X130526933Y105990010D01*
X130574552Y106085248D01*
X130622171Y106132867D01*
X130717409Y106180486D01*
X130907885Y106180486D01*
X131003123Y106132867D01*
X131479314Y106180486D02*
X131479314Y105513820D01*
X131479314Y106085248D02*
X131526933Y106132867D01*
X131622171Y106180486D01*
X131765028Y106180486D01*
X131860266Y106132867D01*
X131907885Y106037629D01*
X131907885Y105513820D01*
X132812647Y105513820D02*
X132812647Y106513820D01*
X132812647Y105561439D02*
X132717409Y105513820D01*
X132526933Y105513820D01*
X132431695Y105561439D01*
X132384076Y105609058D01*
X132336457Y105704296D01*
X132336457Y105990010D01*
X132384076Y106085248D01*
X132431695Y106132867D01*
X132526933Y106180486D01*
X132717409Y106180486D01*
X132812647Y106132867D01*
X166037723Y87463820D02*
X166656771Y87463820D01*
X166323438Y87082867D01*
X166466295Y87082867D01*
X166561533Y87035248D01*
X166609152Y86987629D01*
X166656771Y86892391D01*
X166656771Y86654296D01*
X166609152Y86559058D01*
X166561533Y86511439D01*
X166466295Y86463820D01*
X166180580Y86463820D01*
X166085342Y86511439D01*
X166037723Y86559058D01*
X166990104Y87130486D02*
X167228200Y86463820D01*
X167466295Y87130486D01*
X167752009Y87463820D02*
X168371057Y87463820D01*
X168037723Y87082867D01*
X168180580Y87082867D01*
X168275819Y87035248D01*
X168323438Y86987629D01*
X168371057Y86892391D01*
X168371057Y86654296D01*
X168323438Y86559058D01*
X168275819Y86511439D01*
X168180580Y86463820D01*
X167894866Y86463820D01*
X167799628Y86511439D01*
X167752009Y86559058D01*
X109122542Y96201420D02*
X108646352Y96201420D01*
X108598733Y95725229D01*
X108646352Y95772848D01*
X108741590Y95820467D01*
X108979685Y95820467D01*
X109074923Y95772848D01*
X109122542Y95725229D01*
X109170161Y95629991D01*
X109170161Y95391896D01*
X109122542Y95296658D01*
X109074923Y95249039D01*
X108979685Y95201420D01*
X108741590Y95201420D01*
X108646352Y95249039D01*
X108598733Y95296658D01*
X109503495Y95868086D02*
X109741590Y95201420D01*
X109979685Y95868086D01*
X108549523Y86038286D02*
X108549523Y85228762D01*
X108501904Y85133524D01*
X108454285Y85085905D01*
X108359047Y85038286D01*
X108216190Y85038286D01*
X108120952Y85085905D01*
X108549523Y85419239D02*
X108454285Y85371620D01*
X108263809Y85371620D01*
X108168571Y85419239D01*
X108120952Y85466858D01*
X108073333Y85562096D01*
X108073333Y85847810D01*
X108120952Y85943048D01*
X108168571Y85990667D01*
X108263809Y86038286D01*
X108454285Y86038286D01*
X108549523Y85990667D01*
X109025714Y86038286D02*
X109025714Y85371620D01*
X109025714Y85943048D02*
X109073333Y85990667D01*
X109168571Y86038286D01*
X109311428Y86038286D01*
X109406666Y85990667D01*
X109454285Y85895429D01*
X109454285Y85371620D01*
X110359047Y85371620D02*
X110359047Y86371620D01*
X110359047Y85419239D02*
X110263809Y85371620D01*
X110073333Y85371620D01*
X109978095Y85419239D01*
X109930476Y85466858D01*
X109882857Y85562096D01*
X109882857Y85847810D01*
X109930476Y85943048D01*
X109978095Y85990667D01*
X110073333Y86038286D01*
X110263809Y86038286D01*
X110359047Y85990667D01*
X119296761Y134234953D02*
X119344380Y134330191D01*
X119344380Y134520667D01*
X119296761Y134615905D01*
X119201523Y134663524D01*
X119153904Y134663524D01*
X119058666Y134615905D01*
X119011047Y134520667D01*
X119011047Y134377810D01*
X118963428Y134282572D01*
X118868190Y134234953D01*
X118820571Y134234953D01*
X118725333Y134282572D01*
X118677714Y134377810D01*
X118677714Y134520667D01*
X118725333Y134615905D01*
X119344380Y135520667D02*
X118344380Y135520667D01*
X119296761Y135520667D02*
X119344380Y135425429D01*
X119344380Y135234953D01*
X119296761Y135139715D01*
X119249142Y135092096D01*
X119153904Y135044477D01*
X118868190Y135044477D01*
X118772952Y135092096D01*
X118725333Y135139715D01*
X118677714Y135234953D01*
X118677714Y135425429D01*
X118725333Y135520667D01*
X119344380Y136425429D02*
X118820571Y136425429D01*
X118725333Y136377810D01*
X118677714Y136282572D01*
X118677714Y136092096D01*
X118725333Y135996858D01*
X119296761Y136425429D02*
X119344380Y136330191D01*
X119344380Y136092096D01*
X119296761Y135996858D01*
X119201523Y135949239D01*
X119106285Y135949239D01*
X119011047Y135996858D01*
X118963428Y136092096D01*
X118963428Y136330191D01*
X118915809Y136425429D01*
X104493523Y129043620D02*
X105112571Y129043620D01*
X104779238Y128662667D01*
X104922095Y128662667D01*
X105017333Y128615048D01*
X105064952Y128567429D01*
X105112571Y128472191D01*
X105112571Y128234096D01*
X105064952Y128138858D01*
X105017333Y128091239D01*
X104922095Y128043620D01*
X104636380Y128043620D01*
X104541142Y128091239D01*
X104493523Y128138858D01*
X105445904Y128710286D02*
X105684000Y128043620D01*
X105922095Y128710286D01*
X106207809Y129043620D02*
X106826857Y129043620D01*
X106493523Y128662667D01*
X106636380Y128662667D01*
X106731619Y128615048D01*
X106779238Y128567429D01*
X106826857Y128472191D01*
X106826857Y128234096D01*
X106779238Y128138858D01*
X106731619Y128091239D01*
X106636380Y128043620D01*
X106350666Y128043620D01*
X106255428Y128091239D01*
X106207809Y128138858D01*
X133187523Y128964286D02*
X133187523Y128154762D01*
X133139904Y128059524D01*
X133092285Y128011905D01*
X132997047Y127964286D01*
X132854190Y127964286D01*
X132758952Y128011905D01*
X133187523Y128345239D02*
X133092285Y128297620D01*
X132901809Y128297620D01*
X132806571Y128345239D01*
X132758952Y128392858D01*
X132711333Y128488096D01*
X132711333Y128773810D01*
X132758952Y128869048D01*
X132806571Y128916667D01*
X132901809Y128964286D01*
X133092285Y128964286D01*
X133187523Y128916667D01*
X133663714Y128964286D02*
X133663714Y128297620D01*
X133663714Y128869048D02*
X133711333Y128916667D01*
X133806571Y128964286D01*
X133949428Y128964286D01*
X134044666Y128916667D01*
X134092285Y128821429D01*
X134092285Y128297620D01*
X134997047Y128297620D02*
X134997047Y129297620D01*
X134997047Y128345239D02*
X134901809Y128297620D01*
X134711333Y128297620D01*
X134616095Y128345239D01*
X134568476Y128392858D01*
X134520857Y128488096D01*
X134520857Y128773810D01*
X134568476Y128869048D01*
X134616095Y128916667D01*
X134711333Y128964286D01*
X134901809Y128964286D01*
X134997047Y128916667D01*
X167491742Y82333020D02*
X167015552Y82333020D01*
X166967933Y81856829D01*
X167015552Y81904448D01*
X167110790Y81952067D01*
X167348885Y81952067D01*
X167444123Y81904448D01*
X167491742Y81856829D01*
X167539361Y81761591D01*
X167539361Y81523496D01*
X167491742Y81428258D01*
X167444123Y81380639D01*
X167348885Y81333020D01*
X167110790Y81333020D01*
X167015552Y81380639D01*
X166967933Y81428258D01*
X167872695Y81999686D02*
X168110790Y81333020D01*
X168348885Y81999686D01*
X139678742Y106564620D02*
X139202552Y106564620D01*
X139154933Y106088429D01*
X139202552Y106136048D01*
X139297790Y106183667D01*
X139535885Y106183667D01*
X139631123Y106136048D01*
X139678742Y106088429D01*
X139726361Y105993191D01*
X139726361Y105755096D01*
X139678742Y105659858D01*
X139631123Y105612239D01*
X139535885Y105564620D01*
X139297790Y105564620D01*
X139202552Y105612239D01*
X139154933Y105659858D01*
X140059695Y106231286D02*
X140297790Y105564620D01*
X140535885Y106231286D01*
X113851714Y134663524D02*
X114661238Y134663524D01*
X114756476Y134615905D01*
X114804095Y134568286D01*
X114851714Y134473048D01*
X114851714Y134330191D01*
X114804095Y134234953D01*
X114470761Y134663524D02*
X114518380Y134568286D01*
X114518380Y134377810D01*
X114470761Y134282572D01*
X114423142Y134234953D01*
X114327904Y134187334D01*
X114042190Y134187334D01*
X113946952Y134234953D01*
X113899333Y134282572D01*
X113851714Y134377810D01*
X113851714Y134568286D01*
X113899333Y134663524D01*
X113851714Y135139715D02*
X114518380Y135139715D01*
X113946952Y135139715D02*
X113899333Y135187334D01*
X113851714Y135282572D01*
X113851714Y135425429D01*
X113899333Y135520667D01*
X113994571Y135568286D01*
X114518380Y135568286D01*
X114518380Y136473048D02*
X113518380Y136473048D01*
X114470761Y136473048D02*
X114518380Y136377810D01*
X114518380Y136187334D01*
X114470761Y136092096D01*
X114423142Y136044477D01*
X114327904Y135996858D01*
X114042190Y135996858D01*
X113946952Y136044477D01*
X113899333Y136092096D01*
X113851714Y136187334D01*
X113851714Y136377810D01*
X113899333Y136473048D01*
X144041323Y129272220D02*
X144660371Y129272220D01*
X144327038Y128891267D01*
X144469895Y128891267D01*
X144565133Y128843648D01*
X144612752Y128796029D01*
X144660371Y128700791D01*
X144660371Y128462696D01*
X144612752Y128367458D01*
X144565133Y128319839D01*
X144469895Y128272220D01*
X144184180Y128272220D01*
X144088942Y128319839D01*
X144041323Y128367458D01*
X144993704Y128938886D02*
X145231800Y128272220D01*
X145469895Y128938886D01*
X145755609Y129272220D02*
X146374657Y129272220D01*
X146041323Y128891267D01*
X146184180Y128891267D01*
X146279419Y128843648D01*
X146327038Y128796029D01*
X146374657Y128700791D01*
X146374657Y128462696D01*
X146327038Y128367458D01*
X146279419Y128319839D01*
X146184180Y128272220D01*
X145898466Y128272220D01*
X145803228Y128319839D01*
X145755609Y128367458D01*
X166563123Y84641286D02*
X166563123Y83831762D01*
X166515504Y83736524D01*
X166467885Y83688905D01*
X166372647Y83641286D01*
X166229790Y83641286D01*
X166134552Y83688905D01*
X166563123Y84022239D02*
X166467885Y83974620D01*
X166277409Y83974620D01*
X166182171Y84022239D01*
X166134552Y84069858D01*
X166086933Y84165096D01*
X166086933Y84450810D01*
X166134552Y84546048D01*
X166182171Y84593667D01*
X166277409Y84641286D01*
X166467885Y84641286D01*
X166563123Y84593667D01*
X167039314Y84641286D02*
X167039314Y83974620D01*
X167039314Y84546048D02*
X167086933Y84593667D01*
X167182171Y84641286D01*
X167325028Y84641286D01*
X167420266Y84593667D01*
X167467885Y84498429D01*
X167467885Y83974620D01*
X168372647Y83974620D02*
X168372647Y84974620D01*
X168372647Y84022239D02*
X168277409Y83974620D01*
X168086933Y83974620D01*
X167991695Y84022239D01*
X167944076Y84069858D01*
X167896457Y84165096D01*
X167896457Y84450810D01*
X167944076Y84546048D01*
X167991695Y84593667D01*
X168086933Y84641286D01*
X168277409Y84641286D01*
X168372647Y84593667D01*
X116883761Y134220639D02*
X116931380Y134315877D01*
X116931380Y134506353D01*
X116883761Y134601591D01*
X116788523Y134649210D01*
X116740904Y134649210D01*
X116645666Y134601591D01*
X116598047Y134506353D01*
X116598047Y134363496D01*
X116550428Y134268258D01*
X116455190Y134220639D01*
X116407571Y134220639D01*
X116312333Y134268258D01*
X116264714Y134363496D01*
X116264714Y134506353D01*
X116312333Y134601591D01*
X116883761Y135506353D02*
X116931380Y135411115D01*
X116931380Y135220639D01*
X116883761Y135125400D01*
X116836142Y135077781D01*
X116740904Y135030162D01*
X116455190Y135030162D01*
X116359952Y135077781D01*
X116312333Y135125400D01*
X116264714Y135220639D01*
X116264714Y135411115D01*
X116312333Y135506353D01*
X116931380Y136077781D02*
X116883761Y135982543D01*
X116788523Y135934924D01*
X115931380Y135934924D01*
X118457257Y114607020D02*
X118457257Y115607020D01*
X118885828Y114607020D02*
X118885828Y115130829D01*
X118838209Y115226067D01*
X118742971Y115273686D01*
X118600114Y115273686D01*
X118504876Y115226067D01*
X118457257Y115178448D01*
X119362019Y114607020D02*
X119362019Y115273686D01*
X119362019Y115607020D02*
X119314400Y115559400D01*
X119362019Y115511781D01*
X119409638Y115559400D01*
X119362019Y115607020D01*
X119362019Y115511781D01*
X120600114Y114607020D02*
X120600114Y115273686D01*
X120600114Y115083210D02*
X120647733Y115178448D01*
X120695352Y115226067D01*
X120790590Y115273686D01*
X120885828Y115273686D01*
X121600114Y114654639D02*
X121504876Y114607020D01*
X121314400Y114607020D01*
X121219161Y114654639D01*
X121171542Y114749877D01*
X121171542Y115130829D01*
X121219161Y115226067D01*
X121314400Y115273686D01*
X121504876Y115273686D01*
X121600114Y115226067D01*
X121647733Y115130829D01*
X121647733Y115035591D01*
X121171542Y114940353D01*
X121933447Y115273686D02*
X122314400Y115273686D01*
X122076304Y114607020D02*
X122076304Y115464162D01*
X122123923Y115559400D01*
X122219161Y115607020D01*
X122314400Y115607020D01*
X102828304Y114810220D02*
X102733066Y114857839D01*
X102685447Y114953077D01*
X102685447Y115810220D01*
X103352114Y114810220D02*
X103256876Y114857839D01*
X103209257Y114905458D01*
X103161638Y115000696D01*
X103161638Y115286410D01*
X103209257Y115381648D01*
X103256876Y115429267D01*
X103352114Y115476886D01*
X103494971Y115476886D01*
X103590209Y115429267D01*
X103637828Y115381648D01*
X103685447Y115286410D01*
X103685447Y115000696D01*
X103637828Y114905458D01*
X103590209Y114857839D01*
X103494971Y114810220D01*
X103352114Y114810220D01*
X104875923Y114810220D02*
X104875923Y115476886D01*
X104875923Y115286410D02*
X104923542Y115381648D01*
X104971161Y115429267D01*
X105066400Y115476886D01*
X105161638Y115476886D01*
X105875923Y114857839D02*
X105780685Y114810220D01*
X105590209Y114810220D01*
X105494971Y114857839D01*
X105447352Y114953077D01*
X105447352Y115334029D01*
X105494971Y115429267D01*
X105590209Y115476886D01*
X105780685Y115476886D01*
X105875923Y115429267D01*
X105923542Y115334029D01*
X105923542Y115238791D01*
X105447352Y115143553D01*
X106209257Y115476886D02*
X106590209Y115476886D01*
X106352114Y114810220D02*
X106352114Y115667362D01*
X106399733Y115762600D01*
X106494971Y115810220D01*
X106590209Y115810220D01*
%TO.C,J2*%
X135636666Y110617620D02*
X135636666Y109903334D01*
X135589047Y109760477D01*
X135493809Y109665239D01*
X135350952Y109617620D01*
X135255714Y109617620D01*
X136065238Y110522381D02*
X136112857Y110570000D01*
X136208095Y110617620D01*
X136446190Y110617620D01*
X136541428Y110570000D01*
X136589047Y110522381D01*
X136636666Y110427143D01*
X136636666Y110331905D01*
X136589047Y110189048D01*
X136017619Y109617620D01*
X136636666Y109617620D01*
X132160476Y102417620D02*
X131684285Y102417620D01*
X131636666Y101941429D01*
X131684285Y101989048D01*
X131779523Y102036667D01*
X132017619Y102036667D01*
X132112857Y101989048D01*
X132160476Y101941429D01*
X132208095Y101846191D01*
X132208095Y101608096D01*
X132160476Y101512858D01*
X132112857Y101465239D01*
X132017619Y101417620D01*
X131779523Y101417620D01*
X131684285Y101465239D01*
X131636666Y101512858D01*
X132541428Y102084286D02*
X132779523Y101417620D01*
X133017619Y102084286D01*
X134160476Y101417620D02*
X134160476Y102417620D01*
X134541428Y102417620D01*
X134636666Y102370000D01*
X134684285Y102322381D01*
X134731904Y102227143D01*
X134731904Y102084286D01*
X134684285Y101989048D01*
X134636666Y101941429D01*
X134541428Y101893810D01*
X134160476Y101893810D01*
X135303333Y101417620D02*
X135208095Y101465239D01*
X135160476Y101512858D01*
X135112857Y101608096D01*
X135112857Y101893810D01*
X135160476Y101989048D01*
X135208095Y102036667D01*
X135303333Y102084286D01*
X135446190Y102084286D01*
X135541428Y102036667D01*
X135589047Y101989048D01*
X135636666Y101893810D01*
X135636666Y101608096D01*
X135589047Y101512858D01*
X135541428Y101465239D01*
X135446190Y101417620D01*
X135303333Y101417620D01*
X135970000Y102084286D02*
X136160476Y101417620D01*
X136350952Y101893810D01*
X136541428Y101417620D01*
X136731904Y102084286D01*
X137493809Y101465239D02*
X137398571Y101417620D01*
X137208095Y101417620D01*
X137112857Y101465239D01*
X137065238Y101560477D01*
X137065238Y101941429D01*
X137112857Y102036667D01*
X137208095Y102084286D01*
X137398571Y102084286D01*
X137493809Y102036667D01*
X137541428Y101941429D01*
X137541428Y101846191D01*
X137065238Y101750953D01*
X137970000Y101417620D02*
X137970000Y102084286D01*
X137970000Y101893810D02*
X138017619Y101989048D01*
X138065238Y102036667D01*
X138160476Y102084286D01*
X138255714Y102084286D01*
X139350952Y101417620D02*
X139350952Y102417620D01*
X139827142Y102084286D02*
X139827142Y101417620D01*
X139827142Y101989048D02*
X139874761Y102036667D01*
X139970000Y102084286D01*
X140112857Y102084286D01*
X140208095Y102036667D01*
X140255714Y101941429D01*
X140255714Y101417620D01*
X135636666Y108717620D02*
X135636666Y108003334D01*
X135589047Y107860477D01*
X135493809Y107765239D01*
X135350952Y107717620D01*
X135255714Y107717620D01*
X136065238Y108622381D02*
X136112857Y108670000D01*
X136208095Y108717620D01*
X136446190Y108717620D01*
X136541428Y108670000D01*
X136589047Y108622381D01*
X136636666Y108527143D01*
X136636666Y108431905D01*
X136589047Y108289048D01*
X136017619Y107717620D01*
X136636666Y107717620D01*
%TO.C,J3*%
X113681747Y133429672D02*
X113681747Y132715386D01*
X113634128Y132572529D01*
X113538890Y132477291D01*
X113396033Y132429672D01*
X113300795Y132429672D01*
X114062700Y133429672D02*
X114681747Y133429672D01*
X114348414Y133048719D01*
X114491271Y133048719D01*
X114586509Y133001100D01*
X114634128Y132953481D01*
X114681747Y132858243D01*
X114681747Y132620148D01*
X114634128Y132524910D01*
X114586509Y132477291D01*
X114491271Y132429672D01*
X114205557Y132429672D01*
X114110319Y132477291D01*
X114062700Y132524910D01*
X110872223Y124229672D02*
X110396033Y124229672D01*
X110396033Y125229672D01*
X111157938Y124277291D02*
X111300795Y124229672D01*
X111538890Y124229672D01*
X111634128Y124277291D01*
X111681747Y124324910D01*
X111729366Y124420148D01*
X111729366Y124515386D01*
X111681747Y124610624D01*
X111634128Y124658243D01*
X111538890Y124705862D01*
X111348414Y124753481D01*
X111253176Y124801100D01*
X111205557Y124848719D01*
X111157938Y124943957D01*
X111157938Y125039195D01*
X111205557Y125134433D01*
X111253176Y125182052D01*
X111348414Y125229672D01*
X111586509Y125229672D01*
X111729366Y125182052D01*
X112157938Y124229672D02*
X112157938Y125229672D01*
X112491271Y124515386D01*
X112824604Y125229672D01*
X112824604Y124229672D01*
X113348414Y124229672D02*
X113538890Y124229672D01*
X113634128Y124277291D01*
X113681747Y124324910D01*
X113776985Y124467767D01*
X113824604Y124658243D01*
X113824604Y125039195D01*
X113776985Y125134433D01*
X113729366Y125182052D01*
X113634128Y125229672D01*
X113443652Y125229672D01*
X113348414Y125182052D01*
X113300795Y125134433D01*
X113253176Y125039195D01*
X113253176Y124801100D01*
X113300795Y124705862D01*
X113348414Y124658243D01*
X113443652Y124610624D01*
X113634128Y124610624D01*
X113729366Y124658243D01*
X113776985Y124705862D01*
X113824604Y124801100D01*
X114253176Y124229672D02*
X114253176Y125229672D01*
X114491271Y125229672D01*
X114634128Y125182052D01*
X114729366Y125086814D01*
X114776985Y124991576D01*
X114824604Y124801100D01*
X114824604Y124658243D01*
X114776985Y124467767D01*
X114729366Y124372529D01*
X114634128Y124277291D01*
X114491271Y124229672D01*
X114253176Y124229672D01*
X115205557Y124277291D02*
X115348414Y124229672D01*
X115586509Y124229672D01*
X115681747Y124277291D01*
X115729366Y124324910D01*
X115776985Y124420148D01*
X115776985Y124515386D01*
X115729366Y124610624D01*
X115681747Y124658243D01*
X115586509Y124705862D01*
X115396033Y124753481D01*
X115300795Y124801100D01*
X115253176Y124848719D01*
X115205557Y124943957D01*
X115205557Y125039195D01*
X115253176Y125134433D01*
X115300795Y125182052D01*
X115396033Y125229672D01*
X115634128Y125229672D01*
X115776985Y125182052D01*
X116396033Y125229672D02*
X116491271Y125229672D01*
X116586509Y125182052D01*
X116634128Y125134433D01*
X116681747Y125039195D01*
X116729366Y124848719D01*
X116729366Y124610624D01*
X116681747Y124420148D01*
X116634128Y124324910D01*
X116586509Y124277291D01*
X116491271Y124229672D01*
X116396033Y124229672D01*
X116300795Y124277291D01*
X116253176Y124324910D01*
X116205557Y124420148D01*
X116157938Y124610624D01*
X116157938Y124848719D01*
X116205557Y125039195D01*
X116253176Y125134433D01*
X116300795Y125182052D01*
X116396033Y125229672D01*
X117681747Y124229672D02*
X117110319Y124229672D01*
X117396033Y124229672D02*
X117396033Y125229672D01*
X117300795Y125086814D01*
X117205557Y124991576D01*
X117110319Y124943957D01*
X113681747Y131529672D02*
X113681747Y130815386D01*
X113634128Y130672529D01*
X113538890Y130577291D01*
X113396033Y130529672D01*
X113300795Y130529672D01*
X114062700Y131529672D02*
X114681747Y131529672D01*
X114348414Y131148719D01*
X114491271Y131148719D01*
X114586509Y131101100D01*
X114634128Y131053481D01*
X114681747Y130958243D01*
X114681747Y130720148D01*
X114634128Y130624910D01*
X114586509Y130577291D01*
X114491271Y130529672D01*
X114205557Y130529672D01*
X114110319Y130577291D01*
X114062700Y130624910D01*
%TO.C,R1*%
X123072380Y101973334D02*
X122596190Y101640000D01*
X123072380Y101401905D02*
X122072380Y101401905D01*
X122072380Y101782858D01*
X122120000Y101878096D01*
X122167619Y101925715D01*
X122262857Y101973334D01*
X122405714Y101973334D01*
X122500952Y101925715D01*
X122548571Y101878096D01*
X122596190Y101782858D01*
X122596190Y101401905D01*
X123072380Y102925715D02*
X123072380Y102354286D01*
X123072380Y102640000D02*
X122072380Y102640000D01*
X122215238Y102544762D01*
X122310476Y102449524D01*
X122358095Y102354286D01*
X126245714Y101378096D02*
X126912380Y101378096D01*
X125864761Y101140000D02*
X126579047Y100901905D01*
X126579047Y101520953D01*
X125912380Y101806667D02*
X125912380Y102473334D01*
X126912380Y102044762D01*
X125912380Y103044762D02*
X125912380Y103140000D01*
X125960000Y103235239D01*
X126007619Y103282858D01*
X126102857Y103330477D01*
X126293333Y103378096D01*
X126531428Y103378096D01*
X126721904Y103330477D01*
X126817142Y103282858D01*
X126864761Y103235239D01*
X126912380Y103140000D01*
X126912380Y103044762D01*
X126864761Y102949524D01*
X126817142Y102901905D01*
X126721904Y102854286D01*
X126531428Y102806667D01*
X126293333Y102806667D01*
X126102857Y102854286D01*
X126007619Y102901905D01*
X125960000Y102949524D01*
X125912380Y103044762D01*
D11*
X124865714Y102020000D02*
X124522857Y101780000D01*
X124865714Y101608572D02*
X124145714Y101608572D01*
X124145714Y101882858D01*
X124180000Y101951429D01*
X124214285Y101985715D01*
X124282857Y102020000D01*
X124385714Y102020000D01*
X124454285Y101985715D01*
X124488571Y101951429D01*
X124522857Y101882858D01*
X124522857Y101608572D01*
X124865714Y102705715D02*
X124865714Y102294286D01*
X124865714Y102500000D02*
X124145714Y102500000D01*
X124248571Y102431429D01*
X124317142Y102362858D01*
X124351428Y102294286D01*
D10*
%TO.C,J4*%
X112391666Y117222620D02*
X112391666Y116508334D01*
X112344047Y116365477D01*
X112248809Y116270239D01*
X112105952Y116222620D01*
X112010714Y116222620D01*
X113296428Y116889286D02*
X113296428Y116222620D01*
X113058333Y117270239D02*
X112820238Y116555953D01*
X113439285Y116555953D01*
X106463095Y100509286D02*
X106463095Y99509286D01*
X106463095Y100461667D02*
X106558333Y100509286D01*
X106748809Y100509286D01*
X106844047Y100461667D01*
X106891666Y100414048D01*
X106939285Y100318810D01*
X106939285Y100033096D01*
X106891666Y99937858D01*
X106844047Y99890239D01*
X106748809Y99842620D01*
X106558333Y99842620D01*
X106463095Y99890239D01*
X107367857Y99842620D02*
X107367857Y100509286D01*
X107367857Y100842620D02*
X107320238Y100795000D01*
X107367857Y100747381D01*
X107415476Y100795000D01*
X107367857Y100842620D01*
X107367857Y100747381D01*
X108272619Y99890239D02*
X108177380Y99842620D01*
X107986904Y99842620D01*
X107891666Y99890239D01*
X107844047Y99937858D01*
X107796428Y100033096D01*
X107796428Y100318810D01*
X107844047Y100414048D01*
X107891666Y100461667D01*
X107986904Y100509286D01*
X108177380Y100509286D01*
X108272619Y100461667D01*
X108844047Y99842620D02*
X108748809Y99890239D01*
X108701190Y99937858D01*
X108653571Y100033096D01*
X108653571Y100318810D01*
X108701190Y100414048D01*
X108748809Y100461667D01*
X108844047Y100509286D01*
X108986904Y100509286D01*
X109082142Y100461667D01*
X109129761Y100414048D01*
X109177380Y100318810D01*
X109177380Y100033096D01*
X109129761Y99937858D01*
X109082142Y99890239D01*
X108986904Y99842620D01*
X108844047Y99842620D01*
X110510714Y99842620D02*
X110415476Y99890239D01*
X110367857Y99985477D01*
X110367857Y100842620D01*
X111272619Y99890239D02*
X111177380Y99842620D01*
X110986904Y99842620D01*
X110891666Y99890239D01*
X110844047Y99985477D01*
X110844047Y100366429D01*
X110891666Y100461667D01*
X110986904Y100509286D01*
X111177380Y100509286D01*
X111272619Y100461667D01*
X111320238Y100366429D01*
X111320238Y100271191D01*
X110844047Y100175953D01*
X111653571Y100509286D02*
X111891666Y99842620D01*
X112129761Y100509286D01*
X112891666Y99890239D02*
X112796428Y99842620D01*
X112605952Y99842620D01*
X112510714Y99890239D01*
X112463095Y99985477D01*
X112463095Y100366429D01*
X112510714Y100461667D01*
X112605952Y100509286D01*
X112796428Y100509286D01*
X112891666Y100461667D01*
X112939285Y100366429D01*
X112939285Y100271191D01*
X112463095Y100175953D01*
X113510714Y99842620D02*
X113415476Y99890239D01*
X113367857Y99985477D01*
X113367857Y100842620D01*
X114605952Y99890239D02*
X114701190Y99842620D01*
X114891666Y99842620D01*
X114986904Y99890239D01*
X115034523Y99985477D01*
X115034523Y100033096D01*
X114986904Y100128334D01*
X114891666Y100175953D01*
X114748809Y100175953D01*
X114653571Y100223572D01*
X114605952Y100318810D01*
X114605952Y100366429D01*
X114653571Y100461667D01*
X114748809Y100509286D01*
X114891666Y100509286D01*
X114986904Y100461667D01*
X115463095Y99842620D02*
X115463095Y100842620D01*
X115891666Y99842620D02*
X115891666Y100366429D01*
X115844047Y100461667D01*
X115748809Y100509286D01*
X115605952Y100509286D01*
X115510714Y100461667D01*
X115463095Y100414048D01*
X116367857Y99842620D02*
X116367857Y100509286D01*
X116367857Y100842620D02*
X116320238Y100795000D01*
X116367857Y100747381D01*
X116415476Y100795000D01*
X116367857Y100842620D01*
X116367857Y100747381D01*
X116701190Y100509286D02*
X117082142Y100509286D01*
X116844047Y99842620D02*
X116844047Y100699762D01*
X116891666Y100795000D01*
X116986904Y100842620D01*
X117082142Y100842620D01*
X117272619Y100509286D02*
X117653571Y100509286D01*
X117415476Y100842620D02*
X117415476Y99985477D01*
X117463095Y99890239D01*
X117558333Y99842620D01*
X117653571Y99842620D01*
X118367857Y99890239D02*
X118272619Y99842620D01*
X118082142Y99842620D01*
X117986904Y99890239D01*
X117939285Y99985477D01*
X117939285Y100366429D01*
X117986904Y100461667D01*
X118082142Y100509286D01*
X118272619Y100509286D01*
X118367857Y100461667D01*
X118415476Y100366429D01*
X118415476Y100271191D01*
X117939285Y100175953D01*
X118844047Y99842620D02*
X118844047Y100509286D01*
X118844047Y100318810D02*
X118891666Y100414048D01*
X118939285Y100461667D01*
X119034523Y100509286D01*
X119129761Y100509286D01*
D12*
X112458333Y108923096D02*
X112458333Y108351667D01*
X112420238Y108237381D01*
X112344047Y108161191D01*
X112229761Y108123096D01*
X112153571Y108123096D01*
X113182142Y108656429D02*
X113182142Y108123096D01*
X112991666Y108961191D02*
X112801190Y108389762D01*
X113296428Y108389762D01*
D10*
%TO.C,J5*%
X104632380Y90376667D02*
X105346666Y90376667D01*
X105489523Y90329048D01*
X105584761Y90233810D01*
X105632380Y90090953D01*
X105632380Y89995715D01*
X104632380Y91329048D02*
X104632380Y90852858D01*
X105108571Y90805239D01*
X105060952Y90852858D01*
X105013333Y90948096D01*
X105013333Y91186191D01*
X105060952Y91281429D01*
X105108571Y91329048D01*
X105203809Y91376667D01*
X105441904Y91376667D01*
X105537142Y91329048D01*
X105584761Y91281429D01*
X105632380Y91186191D01*
X105632380Y90948096D01*
X105584761Y90852858D01*
X105537142Y90805239D01*
X113832380Y87757620D02*
X112832380Y87757620D01*
X113832380Y88329048D01*
X112832380Y88329048D01*
X113784761Y89186191D02*
X113832380Y89090953D01*
X113832380Y88900477D01*
X113784761Y88805239D01*
X113689523Y88757620D01*
X113308571Y88757620D01*
X113213333Y88805239D01*
X113165714Y88900477D01*
X113165714Y89090953D01*
X113213333Y89186191D01*
X113308571Y89233810D01*
X113403809Y89233810D01*
X113499047Y88757620D01*
X113832380Y89805239D02*
X113784761Y89710000D01*
X113737142Y89662381D01*
X113641904Y89614762D01*
X113356190Y89614762D01*
X113260952Y89662381D01*
X113213333Y89710000D01*
X113165714Y89805239D01*
X113165714Y89948096D01*
X113213333Y90043334D01*
X113260952Y90090953D01*
X113356190Y90138572D01*
X113641904Y90138572D01*
X113737142Y90090953D01*
X113784761Y90043334D01*
X113832380Y89948096D01*
X113832380Y89805239D01*
X113165714Y90567143D02*
X114165714Y90567143D01*
X113213333Y90567143D02*
X113165714Y90662381D01*
X113165714Y90852858D01*
X113213333Y90948096D01*
X113260952Y90995715D01*
X113356190Y91043334D01*
X113641904Y91043334D01*
X113737142Y90995715D01*
X113784761Y90948096D01*
X113832380Y90852858D01*
X113832380Y90662381D01*
X113784761Y90567143D01*
X113832380Y91471905D02*
X113165714Y91471905D01*
X112832380Y91471905D02*
X112880000Y91424286D01*
X112927619Y91471905D01*
X112880000Y91519524D01*
X112832380Y91471905D01*
X112927619Y91471905D01*
X113832380Y91852858D02*
X113165714Y92376667D01*
X113165714Y91852858D02*
X113832380Y92376667D01*
X113784761Y93138572D02*
X113832380Y93043334D01*
X113832380Y92852858D01*
X113784761Y92757620D01*
X113689523Y92710000D01*
X113308571Y92710000D01*
X113213333Y92757620D01*
X113165714Y92852858D01*
X113165714Y93043334D01*
X113213333Y93138572D01*
X113308571Y93186191D01*
X113403809Y93186191D01*
X113499047Y92710000D01*
X113832380Y93757620D02*
X113784761Y93662381D01*
X113689523Y93614762D01*
X112832380Y93614762D01*
X106532380Y90376667D02*
X107246666Y90376667D01*
X107389523Y90329048D01*
X107484761Y90233810D01*
X107532380Y90090953D01*
X107532380Y89995715D01*
X106532380Y91329048D02*
X106532380Y90852858D01*
X107008571Y90805239D01*
X106960952Y90852858D01*
X106913333Y90948096D01*
X106913333Y91186191D01*
X106960952Y91281429D01*
X107008571Y91329048D01*
X107103809Y91376667D01*
X107341904Y91376667D01*
X107437142Y91329048D01*
X107484761Y91281429D01*
X107532380Y91186191D01*
X107532380Y90948096D01*
X107484761Y90852858D01*
X107437142Y90805239D01*
%TO.C,U1*%
X167172380Y97568096D02*
X167981904Y97568096D01*
X168077142Y97615715D01*
X168124761Y97663334D01*
X168172380Y97758572D01*
X168172380Y97949048D01*
X168124761Y98044286D01*
X168077142Y98091905D01*
X167981904Y98139524D01*
X167172380Y98139524D01*
X168172380Y99139524D02*
X168172380Y98568096D01*
X168172380Y98853810D02*
X167172380Y98853810D01*
X167315238Y98758572D01*
X167410476Y98663334D01*
X167458095Y98568096D01*
X187492380Y94758572D02*
X187492380Y95330000D01*
X188492380Y95044286D02*
X187492380Y95044286D01*
X188444761Y96044286D02*
X188492380Y95949048D01*
X188492380Y95758572D01*
X188444761Y95663334D01*
X188349523Y95615715D01*
X187968571Y95615715D01*
X187873333Y95663334D01*
X187825714Y95758572D01*
X187825714Y95949048D01*
X187873333Y96044286D01*
X187968571Y96091905D01*
X188063809Y96091905D01*
X188159047Y95615715D01*
X188444761Y96901429D02*
X188492380Y96806191D01*
X188492380Y96615715D01*
X188444761Y96520477D01*
X188349523Y96472858D01*
X187968571Y96472858D01*
X187873333Y96520477D01*
X187825714Y96615715D01*
X187825714Y96806191D01*
X187873333Y96901429D01*
X187968571Y96949048D01*
X188063809Y96949048D01*
X188159047Y96472858D01*
X187825714Y97377620D02*
X188492380Y97377620D01*
X187920952Y97377620D02*
X187873333Y97425239D01*
X187825714Y97520477D01*
X187825714Y97663334D01*
X187873333Y97758572D01*
X187968571Y97806191D01*
X188492380Y97806191D01*
X188444761Y98234762D02*
X188492380Y98330000D01*
X188492380Y98520477D01*
X188444761Y98615715D01*
X188349523Y98663334D01*
X188301904Y98663334D01*
X188206666Y98615715D01*
X188159047Y98520477D01*
X188159047Y98377620D01*
X188111428Y98282381D01*
X188016190Y98234762D01*
X187968571Y98234762D01*
X187873333Y98282381D01*
X187825714Y98377620D01*
X187825714Y98520477D01*
X187873333Y98615715D01*
X187825714Y98996667D02*
X188492380Y99234762D01*
X187825714Y99472858D02*
X188492380Y99234762D01*
X188730476Y99139524D01*
X188778095Y99091905D01*
X188825714Y98996667D01*
X187825714Y100282381D02*
X188492380Y100282381D01*
X187444761Y100044286D02*
X188159047Y99806191D01*
X188159047Y100425239D01*
X188397142Y100806191D02*
X188444761Y100853810D01*
X188492380Y100806191D01*
X188444761Y100758572D01*
X188397142Y100806191D01*
X188492380Y100806191D01*
X187492380Y101472858D02*
X187492380Y101568096D01*
X187540000Y101663334D01*
X187587619Y101710953D01*
X187682857Y101758572D01*
X187873333Y101806191D01*
X188111428Y101806191D01*
X188301904Y101758572D01*
X188397142Y101710953D01*
X188444761Y101663334D01*
X188492380Y101568096D01*
X188492380Y101472858D01*
X188444761Y101377620D01*
X188397142Y101330000D01*
X188301904Y101282381D01*
X188111428Y101234762D01*
X187873333Y101234762D01*
X187682857Y101282381D01*
X187587619Y101330000D01*
X187540000Y101377620D01*
X187492380Y101472858D01*
X174796666Y98267334D02*
X174796666Y98967334D01*
X175030000Y98467334D01*
X175263333Y98967334D01*
X175263333Y98267334D01*
X175596666Y98267334D02*
X175596666Y98967334D01*
X175930000Y98267334D02*
X175930000Y98967334D01*
X176163333Y98467334D01*
X176396666Y98967334D01*
X176396666Y98267334D01*
X176663333Y98967334D02*
X177130000Y98267334D01*
X177130000Y98967334D02*
X176663333Y98267334D01*
X177796666Y98267334D02*
X177563333Y98600667D01*
X177396666Y98267334D02*
X177396666Y98967334D01*
X177663333Y98967334D01*
X177730000Y98934000D01*
X177763333Y98900667D01*
X177796666Y98834000D01*
X177796666Y98734000D01*
X177763333Y98667334D01*
X177730000Y98634000D01*
X177663333Y98600667D01*
X177396666Y98600667D01*
X177996666Y98967334D02*
X178396666Y98967334D01*
X178196666Y98267334D02*
X178196666Y98967334D01*
X178996666Y98267334D02*
X178596666Y98267334D01*
X178796666Y98267334D02*
X178796666Y98967334D01*
X178730000Y98867334D01*
X178663333Y98800667D01*
X178596666Y98767334D01*
X179430000Y98967334D02*
X179496666Y98967334D01*
X179563333Y98934000D01*
X179596666Y98900667D01*
X179630000Y98834000D01*
X179663333Y98700667D01*
X179663333Y98534000D01*
X179630000Y98400667D01*
X179596666Y98334000D01*
X179563333Y98300667D01*
X179496666Y98267334D01*
X179430000Y98267334D01*
X179363333Y98300667D01*
X179330000Y98334000D01*
X179296666Y98400667D01*
X179263333Y98534000D01*
X179263333Y98700667D01*
X179296666Y98834000D01*
X179330000Y98900667D01*
X179363333Y98934000D01*
X179430000Y98967334D01*
X180263333Y98967334D02*
X180130000Y98967334D01*
X180063333Y98934000D01*
X180030000Y98900667D01*
X179963333Y98800667D01*
X179930000Y98667334D01*
X179930000Y98400667D01*
X179963333Y98334000D01*
X179996666Y98300667D01*
X180063333Y98267334D01*
X180196666Y98267334D01*
X180263333Y98300667D01*
X180296666Y98334000D01*
X180330000Y98400667D01*
X180330000Y98567334D01*
X180296666Y98634000D01*
X180263333Y98667334D01*
X180196666Y98700667D01*
X180063333Y98700667D01*
X179996666Y98667334D01*
X179963333Y98634000D01*
X179930000Y98567334D01*
X180596666Y98900667D02*
X180630000Y98934000D01*
X180696666Y98967334D01*
X180863333Y98967334D01*
X180930000Y98934000D01*
X180963333Y98900667D01*
X180996666Y98834000D01*
X180996666Y98767334D01*
X180963333Y98667334D01*
X180563333Y98267334D01*
X180996666Y98267334D01*
X176480000Y99791334D02*
X176480000Y100491334D01*
X176646666Y100491334D01*
X176746666Y100458000D01*
X176813333Y100391334D01*
X176846666Y100324667D01*
X176880000Y100191334D01*
X176880000Y100091334D01*
X176846666Y99958000D01*
X176813333Y99891334D01*
X176746666Y99824667D01*
X176646666Y99791334D01*
X176480000Y99791334D01*
X177080000Y100491334D02*
X177313333Y99791334D01*
X177546666Y100491334D01*
X178113333Y99791334D02*
X177780000Y99791334D01*
X177780000Y100491334D01*
X178646666Y100491334D02*
X178513333Y100491334D01*
X178446666Y100458000D01*
X178413333Y100424667D01*
X178346666Y100324667D01*
X178313333Y100191334D01*
X178313333Y99924667D01*
X178346666Y99858000D01*
X178380000Y99824667D01*
X178446666Y99791334D01*
X178580000Y99791334D01*
X178646666Y99824667D01*
X178680000Y99858000D01*
X178713333Y99924667D01*
X178713333Y100091334D01*
X178680000Y100158000D01*
X178646666Y100191334D01*
X178580000Y100224667D01*
X178446666Y100224667D01*
X178380000Y100191334D01*
X178346666Y100158000D01*
X178313333Y100091334D01*
X178980000Y99991334D02*
X179313333Y99991334D01*
X178913333Y99791334D02*
X179146666Y100491334D01*
X179380000Y99791334D01*
%TO.C,1000uf1*%
X131442380Y87022858D02*
X131442380Y86451429D01*
X131442380Y86737143D02*
X130442380Y86737143D01*
X130585238Y86641905D01*
X130680476Y86546667D01*
X130728095Y86451429D01*
X130442380Y87641905D02*
X130442380Y87737143D01*
X130490000Y87832381D01*
X130537619Y87880000D01*
X130632857Y87927620D01*
X130823333Y87975239D01*
X131061428Y87975239D01*
X131251904Y87927620D01*
X131347142Y87880000D01*
X131394761Y87832381D01*
X131442380Y87737143D01*
X131442380Y87641905D01*
X131394761Y87546667D01*
X131347142Y87499048D01*
X131251904Y87451429D01*
X131061428Y87403810D01*
X130823333Y87403810D01*
X130632857Y87451429D01*
X130537619Y87499048D01*
X130490000Y87546667D01*
X130442380Y87641905D01*
X130442380Y88594286D02*
X130442380Y88689524D01*
X130490000Y88784762D01*
X130537619Y88832381D01*
X130632857Y88880000D01*
X130823333Y88927620D01*
X131061428Y88927620D01*
X131251904Y88880000D01*
X131347142Y88832381D01*
X131394761Y88784762D01*
X131442380Y88689524D01*
X131442380Y88594286D01*
X131394761Y88499048D01*
X131347142Y88451429D01*
X131251904Y88403810D01*
X131061428Y88356191D01*
X130823333Y88356191D01*
X130632857Y88403810D01*
X130537619Y88451429D01*
X130490000Y88499048D01*
X130442380Y88594286D01*
X130442380Y89546667D02*
X130442380Y89641905D01*
X130490000Y89737143D01*
X130537619Y89784762D01*
X130632857Y89832381D01*
X130823333Y89880000D01*
X131061428Y89880000D01*
X131251904Y89832381D01*
X131347142Y89784762D01*
X131394761Y89737143D01*
X131442380Y89641905D01*
X131442380Y89546667D01*
X131394761Y89451429D01*
X131347142Y89403810D01*
X131251904Y89356191D01*
X131061428Y89308572D01*
X130823333Y89308572D01*
X130632857Y89356191D01*
X130537619Y89403810D01*
X130490000Y89451429D01*
X130442380Y89546667D01*
X130775714Y90737143D02*
X131442380Y90737143D01*
X130775714Y90308572D02*
X131299523Y90308572D01*
X131394761Y90356191D01*
X131442380Y90451429D01*
X131442380Y90594286D01*
X131394761Y90689524D01*
X131347142Y90737143D01*
X130775714Y91070477D02*
X130775714Y91451429D01*
X131442380Y91213334D02*
X130585238Y91213334D01*
X130490000Y91260953D01*
X130442380Y91356191D01*
X130442380Y91451429D01*
X131442380Y92308572D02*
X131442380Y91737143D01*
X131442380Y92022858D02*
X130442380Y92022858D01*
X130585238Y91927620D01*
X130680476Y91832381D01*
X130728095Y91737143D01*
X143847142Y89213334D02*
X143894761Y89165715D01*
X143942380Y89022858D01*
X143942380Y88927620D01*
X143894761Y88784762D01*
X143799523Y88689524D01*
X143704285Y88641905D01*
X143513809Y88594286D01*
X143370952Y88594286D01*
X143180476Y88641905D01*
X143085238Y88689524D01*
X142990000Y88784762D01*
X142942380Y88927620D01*
X142942380Y89022858D01*
X142990000Y89165715D01*
X143037619Y89213334D01*
X143942380Y90165715D02*
X143942380Y89594286D01*
X143942380Y89880000D02*
X142942380Y89880000D01*
X143085238Y89784762D01*
X143180476Y89689524D01*
X143228095Y89594286D01*
X137692380Y87022858D02*
X137692380Y86451429D01*
X137692380Y86737143D02*
X136692380Y86737143D01*
X136835238Y86641905D01*
X136930476Y86546667D01*
X136978095Y86451429D01*
X136692380Y87641905D02*
X136692380Y87737143D01*
X136740000Y87832381D01*
X136787619Y87880000D01*
X136882857Y87927620D01*
X137073333Y87975239D01*
X137311428Y87975239D01*
X137501904Y87927620D01*
X137597142Y87880000D01*
X137644761Y87832381D01*
X137692380Y87737143D01*
X137692380Y87641905D01*
X137644761Y87546667D01*
X137597142Y87499048D01*
X137501904Y87451429D01*
X137311428Y87403810D01*
X137073333Y87403810D01*
X136882857Y87451429D01*
X136787619Y87499048D01*
X136740000Y87546667D01*
X136692380Y87641905D01*
X136692380Y88594286D02*
X136692380Y88689524D01*
X136740000Y88784762D01*
X136787619Y88832381D01*
X136882857Y88880000D01*
X137073333Y88927620D01*
X137311428Y88927620D01*
X137501904Y88880000D01*
X137597142Y88832381D01*
X137644761Y88784762D01*
X137692380Y88689524D01*
X137692380Y88594286D01*
X137644761Y88499048D01*
X137597142Y88451429D01*
X137501904Y88403810D01*
X137311428Y88356191D01*
X137073333Y88356191D01*
X136882857Y88403810D01*
X136787619Y88451429D01*
X136740000Y88499048D01*
X136692380Y88594286D01*
X136692380Y89546667D02*
X136692380Y89641905D01*
X136740000Y89737143D01*
X136787619Y89784762D01*
X136882857Y89832381D01*
X137073333Y89880000D01*
X137311428Y89880000D01*
X137501904Y89832381D01*
X137597142Y89784762D01*
X137644761Y89737143D01*
X137692380Y89641905D01*
X137692380Y89546667D01*
X137644761Y89451429D01*
X137597142Y89403810D01*
X137501904Y89356191D01*
X137311428Y89308572D01*
X137073333Y89308572D01*
X136882857Y89356191D01*
X136787619Y89403810D01*
X136740000Y89451429D01*
X136692380Y89546667D01*
X137025714Y90737143D02*
X137692380Y90737143D01*
X137025714Y90308572D02*
X137549523Y90308572D01*
X137644761Y90356191D01*
X137692380Y90451429D01*
X137692380Y90594286D01*
X137644761Y90689524D01*
X137597142Y90737143D01*
X137025714Y91070477D02*
X137025714Y91451429D01*
X137692380Y91213334D02*
X136835238Y91213334D01*
X136740000Y91260953D01*
X136692380Y91356191D01*
X136692380Y91451429D01*
X137692380Y92308572D02*
X137692380Y91737143D01*
X137692380Y92022858D02*
X136692380Y92022858D01*
X136835238Y91927620D01*
X136930476Y91832381D01*
X136978095Y91737143D01*
%TO.C,J1*%
X139446666Y133477620D02*
X139446666Y132763334D01*
X139399047Y132620477D01*
X139303809Y132525239D01*
X139160952Y132477620D01*
X139065714Y132477620D01*
X140446666Y132477620D02*
X139875238Y132477620D01*
X140160952Y132477620D02*
X140160952Y133477620D01*
X140065714Y133334762D01*
X139970476Y133239524D01*
X139875238Y133191905D01*
X137494285Y125277620D02*
X137827619Y124277620D01*
X138160952Y125277620D01*
X138637142Y124277620D02*
X138541904Y124325239D01*
X138494285Y124372858D01*
X138446666Y124468096D01*
X138446666Y124753810D01*
X138494285Y124849048D01*
X138541904Y124896667D01*
X138637142Y124944286D01*
X138780000Y124944286D01*
X138875238Y124896667D01*
X138922857Y124849048D01*
X138970476Y124753810D01*
X138970476Y124468096D01*
X138922857Y124372858D01*
X138875238Y124325239D01*
X138780000Y124277620D01*
X138637142Y124277620D01*
X139541904Y124277620D02*
X139446666Y124325239D01*
X139399047Y124420477D01*
X139399047Y125277620D01*
X139922857Y124277620D02*
X139922857Y125277620D01*
X140303809Y125277620D01*
X140399047Y125230000D01*
X140446666Y125182381D01*
X140494285Y125087143D01*
X140494285Y124944286D01*
X140446666Y124849048D01*
X140399047Y124801429D01*
X140303809Y124753810D01*
X139922857Y124753810D01*
X141065714Y124277620D02*
X140970476Y124325239D01*
X140922857Y124372858D01*
X140875238Y124468096D01*
X140875238Y124753810D01*
X140922857Y124849048D01*
X140970476Y124896667D01*
X141065714Y124944286D01*
X141208571Y124944286D01*
X141303809Y124896667D01*
X141351428Y124849048D01*
X141399047Y124753810D01*
X141399047Y124468096D01*
X141351428Y124372858D01*
X141303809Y124325239D01*
X141208571Y124277620D01*
X141065714Y124277620D01*
X141684761Y124944286D02*
X142065714Y124944286D01*
X141827619Y125277620D02*
X141827619Y124420477D01*
X141875238Y124325239D01*
X141970476Y124277620D01*
X142065714Y124277620D01*
X139446666Y131577620D02*
X139446666Y130863334D01*
X139399047Y130720477D01*
X139303809Y130625239D01*
X139160952Y130577620D01*
X139065714Y130577620D01*
X140446666Y130577620D02*
X139875238Y130577620D01*
X140160952Y130577620D02*
X140160952Y131577620D01*
X140065714Y131434762D01*
X139970476Y131339524D01*
X139875238Y131291905D01*
D12*
%TO.C,J2*%
X138620000Y108980000D02*
X133320000Y108980000D01*
X136440000Y108980000D02*
X136440000Y108380000D01*
X134950000Y104490000D02*
X136990000Y104490000D01*
X134700000Y103960000D02*
X134950000Y104490000D01*
X136990000Y102960000D02*
X136990000Y103960000D01*
X138620000Y102960000D02*
X138620000Y108980000D01*
X134700000Y103960000D02*
X137240000Y103960000D01*
X134700000Y102960000D02*
X134700000Y103960000D01*
X134950000Y102960000D02*
X134950000Y103960000D01*
X138040000Y108380000D02*
X138040000Y108980000D01*
X133030000Y107950000D02*
X133030000Y103950000D01*
X137240000Y103960000D02*
X137240000Y102960000D01*
X133900000Y108380000D02*
X135500000Y108380000D01*
X136990000Y104490000D02*
X137240000Y103960000D01*
X133320000Y108980000D02*
X133320000Y102960000D01*
X133320000Y102960000D02*
X138620000Y102960000D01*
X135500000Y108380000D02*
X135500000Y108980000D01*
X133900000Y108980000D02*
X133900000Y108380000D01*
X136440000Y108380000D02*
X138040000Y108380000D01*
%TO.C,J3*%
X107265081Y130762052D02*
X107265081Y126762052D01*
X107555081Y125772052D02*
X120475081Y125772052D01*
X110675081Y131792052D02*
X110675081Y131192052D01*
X115755081Y131192052D02*
X117355081Y131192052D01*
X108935081Y125772052D02*
X108935081Y126772052D01*
X118295081Y131192052D02*
X119895081Y131192052D01*
X113215081Y131792052D02*
X113215081Y131192052D01*
X108135081Y131192052D02*
X109735081Y131192052D01*
X120475081Y125772052D02*
X120475081Y131792052D01*
X119095081Y126772052D02*
X119095081Y125772052D01*
X109185081Y125772052D02*
X109185081Y126772052D01*
X117355081Y131192052D02*
X117355081Y131792052D01*
X119895081Y131192052D02*
X119895081Y131792052D01*
X120475081Y131792052D02*
X107555081Y131792052D01*
X109735081Y131192052D02*
X109735081Y131792052D01*
X118845081Y127302052D02*
X119095081Y126772052D01*
X114815081Y131192052D02*
X114815081Y131792052D01*
X108135081Y131792052D02*
X108135081Y131192052D01*
X115755081Y131792052D02*
X115755081Y131192052D01*
X112275081Y131192052D02*
X112275081Y131792052D01*
X108935081Y126772052D02*
X109185081Y127302052D01*
X108935081Y126772052D02*
X119095081Y126772052D01*
X107555081Y131792052D02*
X107555081Y125772052D01*
X110675081Y131192052D02*
X112275081Y131192052D01*
X109185081Y127302052D02*
X118845081Y127302052D01*
X118295081Y131792052D02*
X118295081Y131192052D01*
X113215081Y131192052D02*
X114815081Y131192052D01*
X118845081Y125772052D02*
X118845081Y126772052D01*
%TO.C,R1*%
X123620000Y100220000D02*
X125460000Y100220000D01*
X124540000Y105010000D02*
X124540000Y104060000D01*
X125460000Y100220000D02*
X125460000Y104060000D01*
X124540000Y99270000D02*
X124540000Y100220000D01*
X123620000Y104060000D02*
X123620000Y100220000D01*
X125460000Y104060000D02*
X123620000Y104060000D01*
%TO.C,J4*%
X105405000Y106755000D02*
X105405000Y105135000D01*
X107265000Y104215000D02*
X107265000Y102595000D01*
X105405000Y111835000D02*
X105405000Y110215000D01*
X105405000Y112755000D02*
X107265000Y112755000D01*
X105405000Y109295000D02*
X107265000Y109295000D01*
X105405000Y114375000D02*
X105405000Y112755000D01*
X107265000Y106755000D02*
X107265000Y105135000D01*
X105405000Y105135000D02*
X107265000Y105135000D01*
X107265000Y114375000D02*
X107265000Y112755000D01*
X107265000Y109295000D02*
X107265000Y107675000D01*
X107265000Y101294000D02*
X118185000Y101294000D01*
X118185000Y115675000D02*
X118185000Y101294000D01*
X105405000Y104215000D02*
X105405000Y102595000D01*
X105405000Y107675000D02*
X107265000Y107675000D01*
X107265000Y115675000D02*
X107265000Y101294000D01*
X107025000Y115915000D02*
X107025000Y114532000D01*
X105405000Y111835000D02*
X107265000Y111835000D01*
X105405000Y104215000D02*
X107265000Y104215000D01*
X107265000Y115675000D02*
X118185000Y115675000D01*
X105405000Y109295000D02*
X105405000Y107675000D01*
X105405000Y110215000D02*
X107265000Y110215000D01*
X107025000Y115915000D02*
X108408000Y115915000D01*
X105405000Y114375000D02*
X107265000Y114375000D01*
X105405000Y102595000D02*
X107265000Y102595000D01*
X107265000Y111835000D02*
X107265000Y110215000D01*
X105405000Y106755000D02*
X107265000Y106755000D01*
%TO.C,J5*%
X111290000Y93250000D02*
X112290000Y93250000D01*
X106870000Y92450000D02*
X106870000Y94050000D01*
X106870000Y94050000D02*
X106270000Y94050000D01*
X112290000Y88170000D02*
X111290000Y88170000D01*
X112290000Y86790000D02*
X112290000Y94630000D01*
X112290000Y88420000D02*
X111290000Y88420000D01*
X106270000Y86790000D02*
X112290000Y86790000D01*
X106270000Y92450000D02*
X106870000Y92450000D01*
X106870000Y87370000D02*
X106870000Y88970000D01*
X110760000Y88420000D02*
X110760000Y93000000D01*
X106270000Y87370000D02*
X106870000Y87370000D01*
X106870000Y89910000D02*
X106870000Y91510000D01*
X110760000Y93000000D02*
X111290000Y93250000D01*
X106870000Y88970000D02*
X106270000Y88970000D01*
X112290000Y93000000D02*
X111290000Y93000000D01*
X106270000Y94630000D02*
X106270000Y86790000D01*
X107300000Y86500000D02*
X111300000Y86500000D01*
X112290000Y94630000D02*
X106270000Y94630000D01*
X111290000Y88170000D02*
X110760000Y88420000D01*
X111290000Y88170000D02*
X111290000Y93250000D01*
X106270000Y89910000D02*
X106870000Y89910000D01*
X106870000Y91510000D02*
X106270000Y91510000D01*
D10*
%TO.C,U1*%
X168990000Y80550000D02*
X168990000Y116110000D01*
X186770000Y116110000D02*
X186770000Y80550000D01*
X181690000Y79280000D02*
X174070000Y79280000D01*
X172800000Y92615000D02*
X182960000Y92615000D01*
X172800000Y105950000D02*
X175975000Y105950000D01*
X174070000Y85630000D02*
X174070000Y80550000D01*
X174070000Y79280000D02*
X174070000Y80550000D01*
X175975000Y105950000D02*
X175975000Y103410000D01*
X172800000Y103410000D02*
X172800000Y105950000D01*
X179150000Y108490000D02*
X176610000Y108490000D01*
X176610000Y113062000D02*
X179150000Y113062000D01*
X172800000Y102775000D02*
X172800000Y92615000D01*
X181690000Y85630000D02*
X174070000Y85630000D01*
X168990000Y116110000D02*
X186770000Y116110000D01*
X175975000Y103410000D02*
X172800000Y103410000D01*
X182960000Y102775000D02*
X172800000Y102775000D01*
X181690000Y85630000D02*
X181690000Y80550000D01*
X176610000Y108490000D02*
X176610000Y113062000D01*
X182960000Y102775000D02*
X182960000Y92615000D01*
X181690000Y80550000D02*
X181690000Y79280000D01*
X179150000Y113062000D02*
X179150000Y108490000D01*
X186770000Y80550000D02*
X168990000Y80550000D01*
G36*
X178769000Y96933000D02*
G01*
X178388000Y96679000D01*
X178134000Y96933000D01*
X178515000Y97187000D01*
X178769000Y96933000D01*
G37*
D13*
X178769000Y96933000D02*
X178388000Y96679000D01*
X178134000Y96933000D01*
X178515000Y97187000D01*
X178769000Y96933000D01*
G36*
X178642000Y96171000D02*
G01*
X178261000Y95917000D01*
X178007000Y96171000D01*
X178388000Y96425000D01*
X178642000Y96171000D01*
G37*
X178642000Y96171000D02*
X178261000Y95917000D01*
X178007000Y96171000D01*
X178388000Y96425000D01*
X178642000Y96171000D01*
G36*
X177753000Y96171000D02*
G01*
X177372000Y95917000D01*
X177118000Y96171000D01*
X177499000Y96425000D01*
X177753000Y96171000D01*
G37*
X177753000Y96171000D02*
X177372000Y95917000D01*
X177118000Y96171000D01*
X177499000Y96425000D01*
X177753000Y96171000D01*
G36*
X178007000Y95028000D02*
G01*
X177626000Y94774000D01*
X177372000Y95028000D01*
X177753000Y95282000D01*
X178007000Y95028000D01*
G37*
X178007000Y95028000D02*
X177626000Y94774000D01*
X177372000Y95028000D01*
X177753000Y95282000D01*
X178007000Y95028000D01*
G36*
X177626000Y95409000D02*
G01*
X177245000Y95155000D01*
X176991000Y95409000D01*
X177372000Y95663000D01*
X177626000Y95409000D01*
G37*
X177626000Y95409000D02*
X177245000Y95155000D01*
X176991000Y95409000D01*
X177372000Y95663000D01*
X177626000Y95409000D01*
G36*
X178388000Y94647000D02*
G01*
X178007000Y94393000D01*
X177753000Y94647000D01*
X178134000Y94901000D01*
X178388000Y94647000D01*
G37*
X178388000Y94647000D02*
X178007000Y94393000D01*
X177753000Y94647000D01*
X178134000Y94901000D01*
X178388000Y94647000D01*
G36*
X178261000Y96552000D02*
G01*
X177880000Y96298000D01*
X177626000Y96552000D01*
X178007000Y96806000D01*
X178261000Y96552000D01*
G37*
X178261000Y96552000D02*
X177880000Y96298000D01*
X177626000Y96552000D01*
X178007000Y96806000D01*
X178261000Y96552000D01*
G36*
X178134000Y95790000D02*
G01*
X177753000Y95536000D01*
X177499000Y95790000D01*
X177880000Y96044000D01*
X178134000Y95790000D01*
G37*
X178134000Y95790000D02*
X177753000Y95536000D01*
X177499000Y95790000D01*
X177880000Y96044000D01*
X178134000Y95790000D01*
D12*
%TO.C,1000uf1*%
X138481000Y92621000D02*
X141165000Y92621000D01*
X138481000Y92421000D02*
X141320000Y92421000D01*
X134084000Y93381000D02*
X135999000Y93381000D01*
X132160000Y89420000D02*
X142320000Y89420000D01*
X133679000Y93021000D02*
X135999000Y93021000D01*
X134531000Y93701000D02*
X135999000Y93701000D01*
X133561000Y92901000D02*
X135999000Y92901000D01*
X132601000Y91461000D02*
X141879000Y91461000D01*
X138481000Y94181000D02*
X138982000Y94181000D01*
X132258000Y90381000D02*
X142222000Y90381000D01*
X133804000Y93141000D02*
X135999000Y93141000D01*
X132293000Y90541000D02*
X142187000Y90541000D01*
X132162000Y89540000D02*
X142318000Y89540000D01*
X132378000Y90861000D02*
X142102000Y90861000D01*
X138481000Y91941000D02*
X141635000Y91941000D01*
X132637000Y91541000D02*
X141843000Y91541000D01*
X132266000Y90421000D02*
X142214000Y90421000D01*
X138481000Y93701000D02*
X139949000Y93701000D01*
X138481000Y94221000D02*
X138870000Y94221000D01*
X133348000Y92661000D02*
X135999000Y92661000D01*
X138481000Y93581000D02*
X140129000Y93581000D01*
X132800000Y91861000D02*
X141680000Y91861000D01*
X135610000Y94221000D02*
X135999000Y94221000D01*
X138481000Y93301000D02*
X140494000Y93301000D01*
X132205000Y90060000D02*
X142275000Y90060000D01*
X135498000Y94181000D02*
X135999000Y94181000D01*
X138481000Y93541000D02*
X140185000Y93541000D01*
X132416000Y90981000D02*
X142064000Y90981000D01*
X138481000Y92741000D02*
X141064000Y92741000D01*
X132715000Y91701000D02*
X141765000Y91701000D01*
X133600000Y92941000D02*
X135999000Y92941000D01*
X133524000Y92861000D02*
X135999000Y92861000D01*
X132182000Y89860000D02*
X142298000Y89860000D01*
X132942000Y92101000D02*
X135999000Y92101000D01*
X134034000Y93341000D02*
X135999000Y93341000D01*
X133190000Y92461000D02*
X135999000Y92461000D01*
X138481000Y93261000D02*
X140541000Y93261000D01*
X138481000Y94061000D02*
X139277000Y94061000D01*
X132993000Y92181000D02*
X135999000Y92181000D01*
X132186000Y89900000D02*
X142294000Y89900000D01*
X138481000Y92101000D02*
X141538000Y92101000D01*
X138481000Y93221000D02*
X140587000Y93221000D01*
X132502000Y91221000D02*
X141978000Y91221000D01*
X132893000Y92021000D02*
X135999000Y92021000D01*
X134595000Y93741000D02*
X135999000Y93741000D01*
X134134000Y93421000D02*
X135999000Y93421000D01*
X132486000Y91181000D02*
X141994000Y91181000D01*
X138481000Y93181000D02*
X140632000Y93181000D01*
X132403000Y90941000D02*
X142077000Y90941000D01*
X138481000Y92821000D02*
X140993000Y92821000D01*
X136641000Y94461000D02*
X137839000Y94461000D01*
X132869000Y91981000D02*
X135999000Y91981000D01*
X138481000Y94101000D02*
X139184000Y94101000D01*
X138481000Y93861000D02*
X139679000Y93861000D01*
X134295000Y93541000D02*
X135999000Y93541000D01*
X133639000Y92981000D02*
X135999000Y92981000D01*
X138481000Y93021000D02*
X140801000Y93021000D01*
X132275000Y90461000D02*
X142205000Y90461000D01*
X138481000Y94261000D02*
X138750000Y94261000D01*
X138481000Y93461000D02*
X140294000Y93461000D01*
X136378000Y94421000D02*
X138102000Y94421000D01*
X134365000Y83900354D02*
X134365000Y84900354D01*
X133160000Y92421000D02*
X135999000Y92421000D01*
X132161000Y89500000D02*
X142319000Y89500000D01*
X133315000Y92621000D02*
X135999000Y92621000D01*
X132443000Y91061000D02*
X142037000Y91061000D01*
X138481000Y94301000D02*
X138618000Y94301000D01*
X132190000Y89940000D02*
X142290000Y89940000D01*
X138481000Y92181000D02*
X141487000Y92181000D01*
X132457000Y91101000D02*
X142023000Y91101000D01*
X132757000Y91781000D02*
X141723000Y91781000D01*
X132366000Y90821000D02*
X142114000Y90821000D01*
X138481000Y92341000D02*
X141378000Y92341000D01*
X132165000Y89620000D02*
X142315000Y89620000D01*
X135031000Y93981000D02*
X135999000Y93981000D01*
X138481000Y92781000D02*
X141029000Y92781000D01*
X133865000Y84400354D02*
X134865000Y84400354D01*
X134351000Y93581000D02*
X135999000Y93581000D01*
X133893000Y93221000D02*
X135999000Y93221000D01*
X138481000Y93741000D02*
X139885000Y93741000D01*
X134661000Y93781000D02*
X135999000Y93781000D01*
X132778000Y91821000D02*
X141702000Y91821000D01*
X138481000Y92461000D02*
X141290000Y92461000D01*
X132967000Y92141000D02*
X135999000Y92141000D01*
X133939000Y93261000D02*
X135999000Y93261000D01*
X135730000Y94261000D02*
X135999000Y94261000D01*
X138481000Y92941000D02*
X140880000Y92941000D01*
X132917000Y92061000D02*
X135999000Y92061000D01*
X138481000Y93661000D02*
X140010000Y93661000D01*
X138481000Y93621000D02*
X140070000Y93621000D01*
X132284000Y90501000D02*
X142196000Y90501000D01*
X138481000Y93101000D02*
X140718000Y93101000D01*
X133720000Y93061000D02*
X135999000Y93061000D01*
X132210000Y90101000D02*
X142270000Y90101000D01*
X138481000Y92141000D02*
X141513000Y92141000D01*
X138481000Y93421000D02*
X140346000Y93421000D01*
X132676000Y91621000D02*
X141804000Y91621000D01*
X138481000Y92501000D02*
X141260000Y92501000D01*
X132312000Y90621000D02*
X142168000Y90621000D01*
X138481000Y94021000D02*
X139365000Y94021000D01*
X132736000Y91741000D02*
X141744000Y91741000D01*
X132566000Y91381000D02*
X141914000Y91381000D01*
X132250000Y90341000D02*
X142230000Y90341000D01*
X132172000Y89740000D02*
X142308000Y89740000D01*
X132517000Y91261000D02*
X141963000Y91261000D01*
X138481000Y93901000D02*
X139605000Y93901000D01*
X132236000Y90261000D02*
X142244000Y90261000D01*
X133487000Y92821000D02*
X135999000Y92821000D01*
X134951000Y93941000D02*
X135999000Y93941000D01*
X132178000Y89820000D02*
X142302000Y89820000D01*
X138481000Y91901000D02*
X141657000Y91901000D01*
X132170000Y89700000D02*
X142310000Y89700000D01*
X132216000Y90141000D02*
X142264000Y90141000D01*
X138481000Y92301000D02*
X141406000Y92301000D01*
X132656000Y91581000D02*
X141824000Y91581000D01*
X133102000Y92341000D02*
X135999000Y92341000D01*
X138481000Y92261000D02*
X141434000Y92261000D01*
X133986000Y93301000D02*
X135999000Y93301000D01*
X138481000Y92381000D02*
X141350000Y92381000D01*
X133130000Y92381000D02*
X135999000Y92381000D01*
X132429000Y91021000D02*
X142051000Y91021000D01*
X132163000Y89580000D02*
X142317000Y89580000D01*
X132160000Y89460000D02*
X142320000Y89460000D01*
X138481000Y92221000D02*
X141461000Y92221000D01*
X133382000Y92701000D02*
X135999000Y92701000D01*
X138481000Y93381000D02*
X140396000Y93381000D01*
X132583000Y91421000D02*
X141897000Y91421000D01*
X133762000Y93101000D02*
X135999000Y93101000D01*
X132195000Y89980000D02*
X142285000Y89980000D01*
X132472000Y91141000D02*
X142008000Y91141000D01*
X132619000Y91501000D02*
X141861000Y91501000D01*
X138481000Y93341000D02*
X140446000Y93341000D01*
X132160000Y89380000D02*
X142320000Y89380000D01*
X134410000Y93621000D02*
X135999000Y93621000D01*
X133451000Y92781000D02*
X135999000Y92781000D01*
X138481000Y93981000D02*
X139449000Y93981000D01*
X134186000Y93461000D02*
X135999000Y93461000D01*
X133416000Y92741000D02*
X135999000Y92741000D01*
X138481000Y92021000D02*
X141587000Y92021000D01*
X132322000Y90661000D02*
X142158000Y90661000D01*
X134240000Y93501000D02*
X135999000Y93501000D01*
X138481000Y93941000D02*
X139529000Y93941000D01*
X138481000Y93821000D02*
X139750000Y93821000D01*
X132390000Y90901000D02*
X142090000Y90901000D01*
X135296000Y94101000D02*
X135999000Y94101000D01*
X133283000Y92581000D02*
X135999000Y92581000D01*
X132200000Y90020000D02*
X142280000Y90020000D01*
X132550000Y91341000D02*
X141930000Y91341000D01*
X132229000Y90221000D02*
X142251000Y90221000D01*
X138481000Y93061000D02*
X140760000Y93061000D01*
X134730000Y93821000D02*
X135999000Y93821000D01*
X132343000Y90741000D02*
X142137000Y90741000D01*
X132845000Y91941000D02*
X135999000Y91941000D01*
X132823000Y91901000D02*
X135999000Y91901000D01*
X134801000Y93861000D02*
X135999000Y93861000D01*
X133046000Y92261000D02*
X135999000Y92261000D01*
X132333000Y90701000D02*
X142147000Y90701000D01*
X138481000Y92861000D02*
X140956000Y92861000D01*
X138481000Y91981000D02*
X141611000Y91981000D01*
X138481000Y92701000D02*
X141098000Y92701000D01*
X133251000Y92541000D02*
X135999000Y92541000D01*
X136178000Y94381000D02*
X138302000Y94381000D01*
X138481000Y92061000D02*
X141563000Y92061000D01*
X138481000Y93501000D02*
X140240000Y93501000D01*
X132243000Y90301000D02*
X142237000Y90301000D01*
X132533000Y91301000D02*
X141947000Y91301000D01*
X132695000Y91661000D02*
X141785000Y91661000D01*
X132302000Y90581000D02*
X142178000Y90581000D01*
X138481000Y92661000D02*
X141132000Y92661000D01*
X138481000Y93781000D02*
X139819000Y93781000D01*
X135115000Y94021000D02*
X135999000Y94021000D01*
X138481000Y94141000D02*
X139086000Y94141000D01*
X132222000Y90181000D02*
X142258000Y90181000D01*
X134470000Y93661000D02*
X135999000Y93661000D01*
X133019000Y92221000D02*
X135999000Y92221000D01*
X133848000Y93181000D02*
X135999000Y93181000D01*
X132355000Y90781000D02*
X142125000Y90781000D01*
X132167000Y89660000D02*
X142313000Y89660000D01*
X138481000Y92981000D02*
X140841000Y92981000D01*
X132175000Y89780000D02*
X142305000Y89780000D01*
X135203000Y94061000D02*
X135999000Y94061000D01*
X133220000Y92501000D02*
X135999000Y92501000D01*
X135394000Y94141000D02*
X135999000Y94141000D01*
X133074000Y92301000D02*
X135999000Y92301000D01*
X138481000Y92581000D02*
X141197000Y92581000D01*
X138481000Y92541000D02*
X141229000Y92541000D01*
X138481000Y93141000D02*
X140676000Y93141000D01*
X134875000Y93901000D02*
X135999000Y93901000D01*
X138481000Y92901000D02*
X140919000Y92901000D01*
X135862000Y94301000D02*
X135999000Y94301000D01*
X138500000Y84417460D02*
G75*
G03*
X135980000Y84417460I-1260000J4962540D01*
G01*
%TO.C,J1*%
X138980000Y131240000D02*
X140580000Y131240000D01*
X135860000Y125820000D02*
X143700000Y125820000D01*
X135570000Y130810000D02*
X135570000Y126810000D01*
X136440000Y131240000D02*
X138040000Y131240000D01*
X140580000Y131240000D02*
X140580000Y131840000D01*
X137240000Y125820000D02*
X137240000Y126820000D01*
X143700000Y125820000D02*
X143700000Y131840000D01*
X137240000Y126820000D02*
X137490000Y127350000D01*
X138040000Y131240000D02*
X138040000Y131840000D01*
X143120000Y131240000D02*
X143120000Y131840000D01*
X142320000Y126820000D02*
X142320000Y125820000D01*
X142070000Y125820000D02*
X142070000Y126820000D01*
X142070000Y127350000D02*
X142320000Y126820000D01*
X136440000Y131840000D02*
X136440000Y131240000D01*
X141520000Y131840000D02*
X141520000Y131240000D01*
X135860000Y131840000D02*
X135860000Y125820000D01*
X137240000Y126820000D02*
X142320000Y126820000D01*
X137490000Y127350000D02*
X142070000Y127350000D01*
X137490000Y125820000D02*
X137490000Y126820000D01*
X141520000Y131240000D02*
X143120000Y131240000D01*
X143700000Y131840000D02*
X135860000Y131840000D01*
X138980000Y131840000D02*
X138980000Y131240000D01*
%TD*%
M02*
