<?xml version="1.0" standalone="no"?>
 <!DOCTYPE svg PUBLIC "-//W3C//DTD SVG 1.1//EN" 
 "http://www.w3.org/Graphics/SVG/1.1/DTD/svg11.dtd"> 
<svg
  xmlns:svg="http://www.w3.org/2000/svg"
  xmlns="http://www.w3.org/2000/svg"
  xmlns:xlink="http://www.w3.org/1999/xlink"
  version="1.1"
  width="11.536680cm" height="7.881620cm" viewBox="0 0 115366800 78816200">
<title>SVG Picture created as Resonator_v3-F_Silkscreen.svg date 2022/11/09 21:33:10 </title>
  <desc>Picture generated by PCBNEW </desc>
<g style="fill:#000000; fill-opacity:1.000000;stroke:#000000; stroke-opacity:1.000000;
stroke-linecap:round; stroke-linejoin:round;"
 transform="translate(0 0) scale(1 1)">
</g>
<g style="fill:#000000; fill-opacity:0.0; 
stroke:#000000; stroke-width:0.000000; stroke-opacity:1; 
stroke-linecap:round; stroke-linejoin:round;">
</g>
<g style="fill:#F2EDA1; fill-opacity:0.0; 
stroke:#F2EDA1; stroke-width:0.000000; stroke-opacity:1; 
stroke-linecap:round; stroke-linejoin:round;">
</g>
<g style="fill:#F2EDA1; fill-opacity:0.0; 
stroke:#F2EDA1; stroke-width:150000.000000; stroke-opacity:1; 
stroke-linecap:round; stroke-linejoin:round;">
</g>
<g style="fill:#F2EDA1; fill-opacity:1.0; 
stroke:#F2EDA1; stroke-width:1.000000; stroke-opacity:1; 
stroke-linecap:round; stroke-linejoin:round;">
<circle cx="4292143.000000" cy="110000.000000" r="75001.000000" /> 
</g>
<g style="fill:#F2EDA1; fill-opacity:1.0; 
stroke:#F2EDA1; stroke-width:150000.000000; stroke-opacity:1; 
stroke-linecap:round; stroke-linejoin:round;">
</g>
<g style="fill:#F2EDA1; fill-opacity:0.0; 
stroke:#F2EDA1; stroke-width:150000.000000; stroke-opacity:1; 
stroke-linecap:round; stroke-linejoin:round;">
<text x="48782143.000000" y="37640000.000000"
textLength="1909286.000000" font-size="1333333.000000" lengthAdjust="spacingAndGlyphs"
text-anchor="middle" opacity="0">J2</text>
<g class="stroked-text"><desc>J2</desc>
<path d="M48448809 36592380
L48448809 37306666
L48401190 37449523
L48305952 37544761
L48163095 37592380
L48067857 37592380
" />
<path d="M48877381 36687619
L48925000 36640000
L49020238 36592380
L49258333 36592380
L49353571 36640000
L49401190 36687619
L49448809 36782857
L49448809 36878095
L49401190 37020952
L48829762 37592380
L49448809 37592380
" />
</g><text x="31767224.000000" y="14827948.000000"
textLength="1909286.000000" font-size="1333333.000000" lengthAdjust="spacingAndGlyphs"
text-anchor="middle" opacity="0">J3</text>
<g class="stroked-text"><desc>J3</desc>
<path d="M31433890 13780328
L31433890 14494614
L31386271 14637471
L31291033 14732709
L31148176 14780328
L31052938 14780328
" />
<path d="M31814843 13780328
L32433890 13780328
L32100557 14161281
L32243414 14161281
L32338652 14208900
L32386271 14256519
L32433890 14351757
L32433890 14589852
L32386271 14685090
L32338652 14732709
L32243414 14780328
L31957700 14780328
L31862462 14732709
L31814843 14685090
" />
</g><g transform="rotate(-90.000000 35452143.000000 44500000.000000)">
<text x="35452143.000000" y="45000000.000000"
textLength="2147381.000000" font-size="1333333.000000" lengthAdjust="spacingAndGlyphs"
text-anchor="middle" opacity="0">R1</text>
</g>
<g class="stroked-text"><desc>R1</desc>
<path d="M35904523 44666666
L35428333 45000000
" />
<path d="M35904523 45238095
L34904523 45238095
L34904523 44857142
L34952143 44761904
L34999762 44714285
L35095000 44666666
L35237857 44666666
L35333095 44714285
L35380714 44761904
L35428333 44857142
L35428333 45238095
" />
<path d="M35904523 43714285
L35904523 44285714
" />
<path d="M35904523 44000000
L34904523 44000000
L35047381 44095238
L35142619 44190476
L35190238 44285714
" />
</g><text x="9432143.000000" y="1430000.000000"
textLength="4480714.000000" font-size="1333333.000000" lengthAdjust="spacingAndGlyphs"
text-anchor="middle" opacity="0">REF**</text>
<g class="stroked-text"><desc>REF**</desc>
<path d="M8098809 1382380
L7765476 906190
" />
<path d="M7527381 1382380
L7527381 382380
L7908333 382380
L8003571 430000
L8051190 477619
L8098809 572857
L8098809 715714
L8051190 810952
L8003571 858571
L7908333 906190
L7527381 906190
" />
<path d="M8527381 858571
L8860714 858571
" />
<path d="M9003571 1382380
L8527381 1382380
L8527381 382380
L9003571 382380
" />
<path d="M9765476 858571
L9432143 858571
" />
<path d="M9432143 1382380
L9432143 382380
L9908333 382380
" />
<path d="M10432143 382380
L10432143 620476
" />
<path d="M10194047 525238
L10432143 620476
L10670238 525238
" />
<path d="M10289285 810952
L10432143 620476
L10575000 810952
" />
<path d="M11194047 382380
L11194047 620476
" />
<path d="M10955952 525238
L11194047 620476
L11432143 525238
" />
<path d="M11051190 810952
L11194047 620476
L11336904 810952
" />
</g><text x="25557143.000000" y="30465000.000000"
textLength="1909286.000000" font-size="1333333.000000" lengthAdjust="spacingAndGlyphs"
text-anchor="middle" opacity="0">J4</text>
<g class="stroked-text"><desc>J4</desc>
<path d="M25223809 29417380
L25223809 30131666
L25176190 30274523
L25080952 30369761
L24938095 30417380
L24842857 30417380
" />
<path d="M26128571 29750714
L26128571 30417380
" />
<path d="M25890476 29369761
L25652381 30084047
L26271428 30084047
" />
</g><g transform="rotate(-90.000000 18582143.000000 55970000.000000)">
<text x="18582143.000000" y="56470000.000000"
textLength="1909286.000000" font-size="1333333.000000" lengthAdjust="spacingAndGlyphs"
text-anchor="middle" opacity="0">J5</text>
</g>
<g class="stroked-text"><desc>J5</desc>
<path d="M18034523 56303333
L18748809 56303333
L18891666 56350952
L18986904 56446190
L19034523 56589047
L19034523 56684285
" />
<path d="M18034523 55350952
L18034523 55827142
L18510714 55874761
L18463095 55827142
L18415476 55731904
L18415476 55493809
L18463095 55398571
L18510714 55350952
L18605952 55303333
L18844047 55303333
L18939285 55350952
L18986904 55398571
L19034523 55493809
L19034523 55731904
L18986904 55827142
L18939285 55874761
" />
</g><g transform="rotate(-90.000000 80552143.000000 48310000.000000)">
<text x="80552143.000000" y="48810000.000000"
textLength="2195000.000000" font-size="1333333.000000" lengthAdjust="spacingAndGlyphs"
text-anchor="middle" opacity="0">U1</text>
</g>
<g class="stroked-text"><desc>U1</desc>
<path d="M80004523 49071904
L80814047 49071904
L80909285 49024285
L80956904 48976666
L81004523 48881428
L81004523 48690952
L80956904 48595714
L80909285 48548095
L80814047 48500476
L80004523 48500476
" />
<path d="M81004523 47500476
L81004523 48071904
" />
<path d="M81004523 47786190
L80004523 47786190
L80147381 47881428
L80242619 47976666
L80290238 48071904
" />
</g><text x="90712143.000000" y="48406000.000000"
textLength="6695000.000000" font-size="933333.000000" lengthAdjust="spacingAndGlyphs"
text-anchor="middle" opacity="0">MIMXRT1062</text>
<g class="stroked-text"><desc>MIMXRT1062</desc>
<path d="M87628809 48372666
L87628809 47672666
L87862143 48172666
L88095476 47672666
L88095476 48372666
" />
<path d="M88428809 48372666
L88428809 47672666
" />
<path d="M88762143 48372666
L88762143 47672666
L88995476 48172666
L89228809 47672666
L89228809 48372666
" />
<path d="M89495476 47672666
L89962143 48372666
" />
<path d="M89962143 47672666
L89495476 48372666
" />
<path d="M90628809 48372666
L90395476 48039333
" />
<path d="M90228809 48372666
L90228809 47672666
L90495476 47672666
L90562143 47706000
L90595476 47739333
L90628809 47806000
L90628809 47906000
L90595476 47972666
L90562143 48006000
L90495476 48039333
L90228809 48039333
" />
<path d="M90828809 47672666
L91228809 47672666
" />
<path d="M91028809 48372666
L91028809 47672666
" />
<path d="M91828809 48372666
L91428809 48372666
" />
<path d="M91628809 48372666
L91628809 47672666
L91562143 47772666
L91495476 47839333
L91428809 47872666
" />
<path d="M92262143 47672666
L92328809 47672666
L92395476 47706000
L92428809 47739333
L92462143 47806000
L92495476 47939333
L92495476 48106000
L92462143 48239333
L92428809 48306000
L92395476 48339333
L92328809 48372666
L92262143 48372666
L92195476 48339333
L92162143 48306000
L92128809 48239333
L92095476 48106000
L92095476 47939333
L92128809 47806000
L92162143 47739333
L92195476 47706000
L92262143 47672666
" />
<path d="M93095476 47672666
L92962143 47672666
L92895476 47706000
L92862143 47739333
L92795476 47839333
L92762143 47972666
L92762143 48239333
L92795476 48306000
L92828809 48339333
L92895476 48372666
L93028809 48372666
L93095476 48339333
L93128809 48306000
L93162143 48239333
L93162143 48072666
L93128809 48006000
L93095476 47972666
L93028809 47939333
L92895476 47939333
L92828809 47972666
L92795476 48006000
L92762143 48072666
" />
<path d="M93428809 47739333
L93462143 47706000
L93528809 47672666
L93695476 47672666
L93762143 47706000
L93795476 47739333
L93828809 47806000
L93828809 47872666
L93795476 47972666
L93395476 48372666
L93828809 48372666
" />
</g><text x="90712143.000000" y="46882000.000000"
textLength="3328333.000000" font-size="933333.000000" lengthAdjust="spacingAndGlyphs"
text-anchor="middle" opacity="0">DVL6A</text>
<g class="stroked-text"><desc>DVL6A</desc>
<path d="M89312143 46848666
L89312143 46148666
L89478809 46148666
L89578809 46182000
L89645476 46248666
L89678809 46315333
L89712143 46448666
L89712143 46548666
L89678809 46682000
L89645476 46748666
L89578809 46815333
L89478809 46848666
L89312143 46848666
" />
<path d="M89912143 46148666
L90145476 46848666
L90378809 46148666
" />
<path d="M90945476 46848666
L90612143 46848666
L90612143 46148666
" />
<path d="M91478809 46148666
L91345476 46148666
L91278809 46182000
L91245476 46215333
L91178809 46315333
L91145476 46448666
L91145476 46715333
L91178809 46782000
L91212143 46815333
L91278809 46848666
L91412143 46848666
L91478809 46815333
L91512143 46782000
L91545476 46715333
L91545476 46548666
L91512143 46482000
L91478809 46448666
L91412143 46415333
L91278809 46415333
L91212143 46448666
L91178809 46482000
L91145476 46548666
" />
<path d="M91812143 46648666
L92145476 46648666
" />
<path d="M91745476 46848666
L91978809 46148666
L92212143 46848666
" />
</g><text x="105952143.000000" y="1430000.000000"
textLength="4480714.000000" font-size="1333333.000000" lengthAdjust="spacingAndGlyphs"
text-anchor="middle" opacity="0">REF**</text>
<g class="stroked-text"><desc>REF**</desc>
<path d="M104618809 1382380
L104285476 906190
" />
<path d="M104047381 1382380
L104047381 382380
L104428333 382380
L104523571 430000
L104571190 477619
L104618809 572857
L104618809 715714
L104571190 810952
L104523571 858571
L104428333 906190
L104047381 906190
" />
<path d="M105047381 858571
L105380714 858571
" />
<path d="M105523571 1382380
L105047381 1382380
L105047381 382380
L105523571 382380
" />
<path d="M106285476 858571
L105952143 858571
" />
<path d="M105952143 1382380
L105952143 382380
L106428333 382380
" />
<path d="M106952143 382380
L106952143 620476
" />
<path d="M106714047 525238
L106952143 620476
L107190238 525238
" />
<path d="M106809285 810952
L106952143 620476
L107095000 810952
" />
<path d="M107714047 382380
L107714047 620476
" />
<path d="M107475952 525238
L107714047 620476
L107952143 525238
" />
<path d="M107571190 810952
L107714047 620476
L107856904 810952
" />
</g><text x="105952143.000000" y="70010000.000000"
textLength="4480714.000000" font-size="1333333.000000" lengthAdjust="spacingAndGlyphs"
text-anchor="middle" opacity="0">REF**</text>
<g class="stroked-text"><desc>REF**</desc>
<path d="M104618809 69962380
L104285476 69486190
" />
<path d="M104047381 69962380
L104047381 68962380
L104428333 68962380
L104523571 69010000
L104571190 69057619
L104618809 69152857
L104618809 69295714
L104571190 69390952
L104523571 69438571
L104428333 69486190
L104047381 69486190
" />
<path d="M105047381 69438571
L105380714 69438571
" />
<path d="M105523571 69962380
L105047381 69962380
L105047381 68962380
L105523571 68962380
" />
<path d="M106285476 69438571
L105952143 69438571
" />
<path d="M105952143 69962380
L105952143 68962380
L106428333 68962380
" />
<path d="M106952143 68962380
L106952143 69200476
" />
<path d="M106714047 69105238
L106952143 69200476
L107190238 69105238
" />
<path d="M106809285 69390952
L106952143 69200476
L107095000 69390952
" />
<path d="M107714047 68962380
L107714047 69200476
" />
<path d="M107475952 69105238
L107714047 69200476
L107952143 69105238
" />
<path d="M107571190 69390952
L107714047 69200476
L107856904 69390952
" />
</g><g transform="rotate(-90.000000 43822143.000000 57260000.000000)">
<text x="43822143.000000" y="57760000.000000"
textLength="6433095.000000" font-size="1333333.000000" lengthAdjust="spacingAndGlyphs"
text-anchor="middle" opacity="0">1000uf1</text>
</g>
<g class="stroked-text"><desc>1000uf1</desc>
<path d="M44274523 59617142
L44274523 60188571
" />
<path d="M44274523 59902857
L43274523 59902857
L43417381 59998095
L43512619 60093333
L43560238 60188571
" />
<path d="M43274523 58998095
L43274523 58902857
L43322143 58807619
L43369762 58760000
L43465000 58712380
L43655476 58664761
L43893571 58664761
L44084047 58712380
L44179285 58760000
L44226904 58807619
L44274523 58902857
L44274523 58998095
L44226904 59093333
L44179285 59140952
L44084047 59188571
L43893571 59236190
L43655476 59236190
L43465000 59188571
L43369762 59140952
L43322143 59093333
L43274523 58998095
" />
<path d="M43274523 58045714
L43274523 57950476
L43322143 57855238
L43369762 57807619
L43465000 57760000
L43655476 57712380
L43893571 57712380
L44084047 57760000
L44179285 57807619
L44226904 57855238
L44274523 57950476
L44274523 58045714
L44226904 58140952
L44179285 58188571
L44084047 58236190
L43893571 58283809
L43655476 58283809
L43465000 58236190
L43369762 58188571
L43322143 58140952
L43274523 58045714
" />
<path d="M43274523 57093333
L43274523 56998095
L43322143 56902857
L43369762 56855238
L43465000 56807619
L43655476 56760000
L43893571 56760000
L44084047 56807619
L44179285 56855238
L44226904 56902857
L44274523 56998095
L44274523 57093333
L44226904 57188571
L44179285 57236190
L44084047 57283809
L43893571 57331428
L43655476 57331428
L43465000 57283809
L43369762 57236190
L43322143 57188571
L43274523 57093333
" />
<path d="M43607857 55902857
L44274523 55902857
" />
<path d="M43607857 56331428
L44131666 56331428
L44226904 56283809
L44274523 56188571
L44274523 56045714
L44226904 55950476
L44179285 55902857
" />
<path d="M43607857 55569523
L43607857 55188571
" />
<path d="M44274523 55426666
L43417381 55426666
L43322143 55379047
L43274523 55283809
L43274523 55188571
" />
<path d="M44274523 54331428
L44274523 54902857
" />
<path d="M44274523 54617142
L43274523 54617142
L43417381 54712380
L43512619 54807619
L43560238 54902857
" />
</g><text x="9432143.000000" y="70010000.000000"
textLength="4480714.000000" font-size="1333333.000000" lengthAdjust="spacingAndGlyphs"
text-anchor="middle" opacity="0">REF**</text>
<g class="stroked-text"><desc>REF**</desc>
<path d="M8098809 69962380
L7765476 69486190
" />
<path d="M7527381 69962380
L7527381 68962380
L7908333 68962380
L8003571 69010000
L8051190 69057619
L8098809 69152857
L8098809 69295714
L8051190 69390952
L8003571 69438571
L7908333 69486190
L7527381 69486190
" />
<path d="M8527381 69438571
L8860714 69438571
" />
<path d="M9003571 69962380
L8527381 69962380
L8527381 68962380
L9003571 68962380
" />
<path d="M9765476 69438571
L9432143 69438571
" />
<path d="M9432143 69962380
L9432143 68962380
L9908333 68962380
" />
<path d="M10432143 68962380
L10432143 69200476
" />
<path d="M10194047 69105238
L10432143 69200476
L10670238 69105238
" />
<path d="M10289285 69390952
L10432143 69200476
L10575000 69390952
" />
<path d="M11194047 68962380
L11194047 69200476
" />
<path d="M10955952 69105238
L11194047 69200476
L11432143 69105238
" />
<path d="M11051190 69390952
L11194047 69200476
L11336904 69390952
" />
</g><text x="52572143.000000" y="14780000.000000"
textLength="1909286.000000" font-size="1333333.000000" lengthAdjust="spacingAndGlyphs"
text-anchor="middle" opacity="0">J1</text>
<g class="stroked-text"><desc>J1</desc>
<path d="M52238809 13732380
L52238809 14446666
L52191190 14589523
L52095952 14684761
L51953095 14732380
L51857857 14732380
" />
<path d="M53238809 14732380
L52667381 14732380
" />
<path d="M52953095 14732380
L52953095 13732380
L52857857 13875238
L52762619 13970476
L52667381 14018095
" />
</g></g>
<g style="fill:#F2EDA1; fill-opacity:0.0; 
stroke:#F2EDA1; stroke-width:120000.000000; stroke-opacity:1; 
stroke-linecap:round; stroke-linejoin:round;">
<path d="M44982143 38990000
L46782143 38990000
" />
<path d="M44972143 38230000
L44972143 44200000
" />
<path d="M44682143 37940000
L44682143 39190000
" />
<path d="M48282143 38240000
L48282143 38990000
" />
<path d="M49282143 38240000
L48282143 38240000
" />
<path d="M52582143 40490000
L51832143 40490000
" />
<path d="M52592143 44200000
L52592143 38230000
" />
<path d="M49282143 38990000
L49282143 38240000
" />
<path d="M52582143 38990000
L52582143 38240000
" />
<path d="M50782143 38990000
L52582143 38990000
" />
<path d="M46782143 38990000
L46782143 38240000
" />
<path d="M52592143 38230000
L44972143 38230000
" />
<path d="M44982143 38240000
L44982143 38990000
" />
<path d="M50782143 38240000
L50782143 38990000
" />
<path d="M52582143 38240000
L50782143 38240000
" />
<path d="M45732143 40490000
L45732143 41830000
" />
<path d="M44972143 44200000
L52592143 44200000
" />
<path d="M48782143 43440000
L46792143 43440000
" />
<path d="M51832143 43440000
L48782143 43440000
" />
<path d="M44982143 40490000
L45732143 40490000
" />
<path d="M45932143 37940000
L44682143 37940000
" />
<path d="M51832143 40490000
L51832143 43440000
" />
<path d="M46782143 38240000
L44982143 38240000
" />
<path d="M48282143 38990000
L49282143 38990000
" />
<path d="M44327224 15417948
L19207224 15417948
" />
<path d="M31767224 20627948
L21027224 20627948
" />
<path d="M41017224 16177948
L41017224 15427948
" />
<path d="M42517224 15427948
L42517224 16177948
" />
<path d="M19967224 17677948
L19967224 19017948
" />
<path d="M44327224 21387948
L44327224 15417948
" />
<path d="M22517224 15427948
L22517224 16177948
" />
<path d="M44317224 17677948
L43567224 17677948
" />
<path d="M19207224 15417948
L19207224 21387948
" />
<path d="M44317224 16177948
L44317224 15427948
" />
<path d="M43567224 20627948
L31767224 20627948
" />
<path d="M18917224 15127948
L18917224 16377948
" />
<path d="M19217224 17677948
L19967224 17677948
" />
<path d="M41017224 15427948
L22517224 15427948
" />
<path d="M19217224 15427948
L19217224 16177948
" />
<path d="M21017224 15427948
L19217224 15427948
" />
<path d="M20167224 15127948
L18917224 15127948
" />
<path d="M22517224 16177948
L41017224 16177948
" />
<path d="M44317224 15427948
L42517224 15427948
" />
<path d="M19217224 16177948
L21017224 16177948
" />
<path d="M42517224 16177948
L44317224 16177948
" />
<path d="M21017224 16177948
L21017224 15427948
" />
<path d="M19207224 21387948
L44327224 21387948
" />
<path d="M43567224 17677948
L43567224 20627948
" />
<path d="M36452143 46420000
L38292143 46420000
" />
<path d="M37372143 41630000
L37372143 42580000
" />
<path d="M38292143 46420000
L38292143 42580000
" />
<path d="M37372143 47370000
L37372143 46420000
" />
<path d="M36452143 42580000
L36452143 46420000
" />
<path d="M38292143 42580000
L36452143 42580000
" />
<path d="M18237143 39885000
L18237143 41505000
" />
<path d="M20097143 42425000
L20097143 44045000
" />
<path d="M18237143 34805000
L18237143 36425000
" />
<path d="M18237143 33885000
L20097143 33885000
" />
<path d="M18237143 37345000
L20097143 37345000
" />
<path d="M18237143 32265000
L18237143 33885000
" />
<path d="M20097143 39885000
L20097143 41505000
" />
<path d="M18237143 41505000
L20097143 41505000
" />
<path d="M20097143 32265000
L20097143 33885000
" />
<path d="M20097143 37345000
L20097143 38965000
" />
<path d="M20097143 45346000
L31017143 45346000
" />
<path d="M31017143 30965000
L31017143 45346000
" />
<path d="M18237143 42425000
L18237143 44045000
" />
<path d="M18237143 38965000
L20097143 38965000
" />
<path d="M20097143 30965000
L20097143 45346000
" />
<path d="M19857143 30725000
L19857143 32108000
" />
<path d="M18237143 34805000
L20097143 34805000
" />
<path d="M18237143 42425000
L20097143 42425000
" />
<path d="M20097143 30965000
L31017143 30965000
" />
<path d="M18237143 37345000
L18237143 38965000
" />
<path d="M18237143 36425000
L20097143 36425000
" />
<path d="M19857143 30725000
L21240143 30725000
" />
<path d="M18237143 32265000
L20097143 32265000
" />
<path d="M18237143 44045000
L20097143 44045000
" />
<path d="M20097143 34805000
L20097143 36425000
" />
<path d="M18237143 39885000
L20097143 39885000
" />
<path d="M25642143 50910000
L19672143 50910000
" />
<path d="M19682143 57720000
L20432143 57720000
" />
<path d="M20432143 61020000
L20432143 59220000
" />
<path d="M19682143 50920000
L19682143 52720000
" />
<path d="M21932143 50920000
L21932143 51670000
" />
<path d="M21932143 60270000
L23272143 60270000
" />
<path d="M19682143 61020000
L20432143 61020000
" />
<path d="M19682143 54220000
L19682143 57720000
" />
<path d="M20432143 59220000
L19682143 59220000
" />
<path d="M20432143 52720000
L20432143 50920000
" />
<path d="M20432143 57720000
L20432143 54220000
" />
<path d="M24882143 55970000
L24882143 59210000
" />
<path d="M19682143 52720000
L20432143 52720000
" />
<path d="M21932143 51670000
L24882143 51670000
" />
<path d="M19382143 60070000
L19382143 61320000
" />
<path d="M19672143 61030000
L25642143 61030000
" />
<path d="M19382143 61320000
L20632143 61320000
" />
<path d="M19672143 50910000
L19672143 61030000
" />
<path d="M24882143 51670000
L24882143 55970000
" />
<path d="M21932143 61020000
L21932143 60270000
" />
<path d="M20432143 50920000
L19682143 50920000
" />
<path d="M20432143 54220000
L19682143 54220000
" />
<path d="M19682143 59220000
L19682143 61020000
" />
<path d="M25642143 61030000
L25642143 50910000
" />
</g>
<g style="fill:#F2EDA1; fill-opacity:0.0; 
stroke:#F2EDA1; stroke-width:150000.000000; stroke-opacity:1; 
stroke-linecap:round; stroke-linejoin:round;">
<path d="M81822143 66090000
L81822143 30530000
" />
<path d="M99602143 30530000
L99602143 66090000
" />
<path d="M94522143 67360000
L86902143 67360000
" />
<path d="M85632143 54025000
L95792143 54025000
" />
<path d="M85632143 40690000
L88807143 40690000
" />
<path d="M86902143 61010000
L86902143 66090000
" />
<path d="M86902143 67360000
L86902143 66090000
" />
<path d="M88807143 40690000
L88807143 43230000
" />
<path d="M85632143 43230000
L85632143 40690000
" />
<path d="M91982143 38150000
L89442143 38150000
" />
<path d="M89442143 33578000
L91982143 33578000
" />
<path d="M85632143 43865000
L85632143 54025000
" />
<path d="M94522143 61010000
L86902143 61010000
" />
<path d="M81822143 30530000
L99602143 30530000
" />
<path d="M88807143 43230000
L85632143 43230000
" />
<path d="M95792143 43865000
L85632143 43865000
" />
<path d="M94522143 61010000
L94522143 66090000
" />
<path d="M89442143 38150000
L89442143 33578000
" />
<path d="M95792143 43865000
L95792143 54025000
" />
<path d="M94522143 66090000
L94522143 67360000
" />
<path d="M91982143 33578000
L91982143 38150000
" />
<path d="M99602143 66090000
L81822143 66090000
" />
</g>
<g style="fill:#F2EDA1; fill-opacity:1.0; 
stroke:#F2EDA1; stroke-width:100000.000000; stroke-opacity:1; 
stroke-linecap:round; stroke-linejoin:round;">
<path style="fill:#F2EDA1; fill-opacity:1.0; 
stroke:#F2EDA1; stroke-width:100000.000000; stroke-opacity:1; 
stroke-linecap:round; stroke-linejoin:round;fill-rule:evenodd;"
d="M 91601143.000000,49707000.000000
91220143.000000,49961000.000000
90966143.000000,49707000.000000
91347143.000000,49453000.000000
Z" /> 
<path style="fill:#F2EDA1; fill-opacity:1.0; 
stroke:#F2EDA1; stroke-width:100000.000000; stroke-opacity:1; 
stroke-linecap:round; stroke-linejoin:round;fill-rule:evenodd;"
d="M 91474143.000000,50469000.000000
91093143.000000,50723000.000000
90839143.000000,50469000.000000
91220143.000000,50215000.000000
Z" /> 
<path style="fill:#F2EDA1; fill-opacity:1.0; 
stroke:#F2EDA1; stroke-width:100000.000000; stroke-opacity:1; 
stroke-linecap:round; stroke-linejoin:round;fill-rule:evenodd;"
d="M 90585143.000000,50469000.000000
90204143.000000,50723000.000000
89950143.000000,50469000.000000
90331143.000000,50215000.000000
Z" /> 
<path style="fill:#F2EDA1; fill-opacity:1.0; 
stroke:#F2EDA1; stroke-width:100000.000000; stroke-opacity:1; 
stroke-linecap:round; stroke-linejoin:round;fill-rule:evenodd;"
d="M 90839143.000000,51612000.000000
90458143.000000,51866000.000000
90204143.000000,51612000.000000
90585143.000000,51358000.000000
Z" /> 
<path style="fill:#F2EDA1; fill-opacity:1.0; 
stroke:#F2EDA1; stroke-width:100000.000000; stroke-opacity:1; 
stroke-linecap:round; stroke-linejoin:round;fill-rule:evenodd;"
d="M 90458143.000000,51231000.000000
90077143.000000,51485000.000000
89823143.000000,51231000.000000
90204143.000000,50977000.000000
Z" /> 
<path style="fill:#F2EDA1; fill-opacity:1.0; 
stroke:#F2EDA1; stroke-width:100000.000000; stroke-opacity:1; 
stroke-linecap:round; stroke-linejoin:round;fill-rule:evenodd;"
d="M 91220143.000000,51993000.000000
90839143.000000,52247000.000000
90585143.000000,51993000.000000
90966143.000000,51739000.000000
Z" /> 
<path style="fill:#F2EDA1; fill-opacity:1.0; 
stroke:#F2EDA1; stroke-width:100000.000000; stroke-opacity:1; 
stroke-linecap:round; stroke-linejoin:round;fill-rule:evenodd;"
d="M 91093143.000000,50088000.000000
90712143.000000,50342000.000000
90458143.000000,50088000.000000
90839143.000000,49834000.000000
Z" /> 
<path style="fill:#F2EDA1; fill-opacity:1.0; 
stroke:#F2EDA1; stroke-width:100000.000000; stroke-opacity:1; 
stroke-linecap:round; stroke-linejoin:round;fill-rule:evenodd;"
d="M 90966143.000000,50850000.000000
90585143.000000,51104000.000000
90331143.000000,50850000.000000
90712143.000000,50596000.000000
Z" /> 
</g>
<g style="fill:#F2EDA1; fill-opacity:1.0; 
stroke:#F2EDA1; stroke-width:120000.000000; stroke-opacity:1; 
stroke-linecap:round; stroke-linejoin:round;">
</g>
<g style="fill:#F2EDA1; fill-opacity:0.0; 
stroke:#F2EDA1; stroke-width:120000.000000; stroke-opacity:1; 
stroke-linecap:round; stroke-linejoin:round;">
<path d="M51313143 54019000
L53997143 54019000
" />
<path d="M51313143 54219000
L54152143 54219000
" />
<path d="M46916143 53259000
L48831143 53259000
" />
<path d="M44992143 57220000
L55152143 57220000
" />
<path d="M46511143 53619000
L48831143 53619000
" />
<path d="M47363143 52939000
L48831143 52939000
" />
<path d="M46393143 53739000
L48831143 53739000
" />
<path d="M45433143 55179000
L54711143 55179000
" />
<path d="M51313143 52459000
L51814143 52459000
" />
<path d="M45090143 56259000
L55054143 56259000
" />
<path d="M46636143 53499000
L48831143 53499000
" />
<path d="M45125143 56099000
L55019143 56099000
" />
<path d="M44994143 57100000
L55150143 57100000
" />
<path d="M45210143 55779000
L54934143 55779000
" />
<path d="M51313143 54699000
L54467143 54699000
" />
<path d="M45469143 55099000
L54675143 55099000
" />
<path d="M45098143 56219000
L55046143 56219000
" />
<path d="M51313143 52939000
L52781143 52939000
" />
<path d="M51313143 52419000
L51702143 52419000
" />
<path d="M46180143 53979000
L48831143 53979000
" />
<path d="M51313143 53059000
L52961143 53059000
" />
<path d="M45632143 54779000
L54512143 54779000
" />
<path d="M48442143 52419000
L48831143 52419000
" />
<path d="M51313143 53339000
L53326143 53339000
" />
<path d="M45037143 56580000
L55107143 56580000
" />
<path d="M48330143 52459000
L48831143 52459000
" />
<path d="M51313143 53099000
L53017143 53099000
" />
<path d="M45248143 55659000
L54896143 55659000
" />
<path d="M51313143 53899000
L53896143 53899000
" />
<path d="M45547143 54939000
L54597143 54939000
" />
<path d="M46432143 53699000
L48831143 53699000
" />
<path d="M46356143 53779000
L48831143 53779000
" />
<path d="M45014143 56780000
L55130143 56780000
" />
<path d="M45774143 54539000
L48831143 54539000
" />
<path d="M46866143 53299000
L48831143 53299000
" />
<path d="M46022143 54179000
L48831143 54179000
" />
<path d="M51313143 53379000
L53373143 53379000
" />
<path d="M51313143 52579000
L52109143 52579000
" />
<path d="M45825143 54459000
L48831143 54459000
" />
<path d="M45018143 56740000
L55126143 56740000
" />
<path d="M51313143 54539000
L54370143 54539000
" />
<path d="M51313143 53419000
L53419143 53419000
" />
<path d="M45334143 55419000
L54810143 55419000
" />
<path d="M45725143 54619000
L48831143 54619000
" />
<path d="M47427143 52899000
L48831143 52899000
" />
<path d="M46966143 53219000
L48831143 53219000
" />
<path d="M45318143 55459000
L54826143 55459000
" />
<path d="M51313143 53459000
L53464143 53459000
" />
<path d="M45235143 55699000
L54909143 55699000
" />
<path d="M51313143 53819000
L53825143 53819000
" />
<path d="M49473143 52179000
L50671143 52179000
" />
<path d="M45701143 54659000
L48831143 54659000
" />
<path d="M51313143 52539000
L52016143 52539000
" />
<path d="M51313143 52779000
L52511143 52779000
" />
<path d="M47127143 53099000
L48831143 53099000
" />
<path d="M46471143 53659000
L48831143 53659000
" />
<path d="M51313143 53619000
L53633143 53619000
" />
<path d="M45107143 56179000
L55037143 56179000
" />
<path d="M51313143 52379000
L51582143 52379000
" />
<path d="M51313143 53179000
L53126143 53179000
" />
<path d="M49210143 52219000
L50934143 52219000
" />
<path d="M47197143 62739646
L47197143 61739646
" />
<path d="M45992143 54219000
L48831143 54219000
" />
<path d="M44993143 57140000
L55151143 57140000
" />
<path d="M46147143 54019000
L48831143 54019000
" />
<path d="M45275143 55579000
L54869143 55579000
" />
<path d="M51313143 52339000
L51450143 52339000
" />
<path d="M45022143 56700000
L55122143 56700000
" />
<path d="M51313143 54459000
L54319143 54459000
" />
<path d="M45289143 55539000
L54855143 55539000
" />
<path d="M45589143 54859000
L54555143 54859000
" />
<path d="M45198143 55819000
L54946143 55819000
" />
<path d="M51313143 54299000
L54210143 54299000
" />
<path d="M44997143 57020000
L55147143 57020000
" />
<path d="M47863143 52659000
L48831143 52659000
" />
<path d="M51313143 53859000
L53861143 53859000
" />
<path d="M46697143 62239646
L47697143 62239646
" />
<path d="M47183143 53059000
L48831143 53059000
" />
<path d="M46725143 53419000
L48831143 53419000
" />
<path d="M51313143 52899000
L52717143 52899000
" />
<path d="M47493143 52859000
L48831143 52859000
" />
<path d="M45610143 54819000
L54534143 54819000
" />
<path d="M51313143 54179000
L54122143 54179000
" />
<path d="M45799143 54499000
L48831143 54499000
" />
<path d="M46771143 53379000
L48831143 53379000
" />
<path d="M48562143 52379000
L48831143 52379000
" />
<path d="M51313143 53699000
L53712143 53699000
" />
<path d="M45749143 54579000
L48831143 54579000
" />
<path d="M51313143 52979000
L52842143 52979000
" />
<path d="M51313143 53019000
L52902143 53019000
" />
<path d="M45116143 56139000
L55028143 56139000
" />
<path d="M51313143 53539000
L53550143 53539000
" />
<path d="M46552143 53579000
L48831143 53579000
" />
<path d="M45042143 56539000
L55102143 56539000
" />
<path d="M51313143 54499000
L54345143 54499000
" />
<path d="M51313143 53219000
L53178143 53219000
" />
<path d="M45508143 55019000
L54636143 55019000
" />
<path d="M51313143 54139000
L54092143 54139000
" />
<path d="M45144143 56019000
L55000143 56019000
" />
<path d="M51313143 52619000
L52197143 52619000
" />
<path d="M45568143 54899000
L54576143 54899000
" />
<path d="M45398143 55259000
L54746143 55259000
" />
<path d="M45082143 56299000
L55062143 56299000
" />
<path d="M45004143 56900000
L55140143 56900000
" />
<path d="M45349143 55379000
L54795143 55379000
" />
<path d="M51313143 52739000
L52437143 52739000
" />
<path d="M45068143 56379000
L55076143 56379000
" />
<path d="M46319143 53819000
L48831143 53819000
" />
<path d="M47783143 52699000
L48831143 52699000
" />
<path d="M45010143 56820000
L55134143 56820000
" />
<path d="M51313143 54739000
L54489143 54739000
" />
<path d="M45002143 56940000
L55142143 56940000
" />
<path d="M45048143 56499000
L55096143 56499000
" />
<path d="M51313143 54339000
L54238143 54339000
" />
<path d="M45488143 55059000
L54656143 55059000
" />
<path d="M45934143 54299000
L48831143 54299000
" />
<path d="M51313143 54379000
L54266143 54379000
" />
<path d="M46818143 53339000
L48831143 53339000
" />
<path d="M51313143 54259000
L54182143 54259000
" />
<path d="M45962143 54259000
L48831143 54259000
" />
<path d="M45261143 55619000
L54883143 55619000
" />
<path d="M44995143 57060000
L55149143 57060000
" />
<path d="M44992143 57180000
L55152143 57180000
" />
<path d="M51313143 54419000
L54293143 54419000
" />
<path d="M46214143 53939000
L48831143 53939000
" />
<path d="M51313143 53259000
L53228143 53259000
" />
<path d="M45415143 55219000
L54729143 55219000
" />
<path d="M46594143 53539000
L48831143 53539000
" />
<path d="M45027143 56660000
L55117143 56660000
" />
<path d="M45304143 55499000
L54840143 55499000
" />
<path d="M45451143 55139000
L54693143 55139000
" />
<path d="M51313143 53299000
L53278143 53299000
" />
<path d="M44992143 57260000
L55152143 57260000
" />
<path d="M47242143 53019000
L48831143 53019000
" />
<path d="M46283143 53859000
L48831143 53859000
" />
<path d="M51313143 52659000
L52281143 52659000
" />
<path d="M47018143 53179000
L48831143 53179000
" />
<path d="M46248143 53899000
L48831143 53899000
" />
<path d="M51313143 54619000
L54419143 54619000
" />
<path d="M45154143 55979000
L54990143 55979000
" />
<path d="M47072143 53139000
L48831143 53139000
" />
<path d="M51313143 52699000
L52361143 52699000
" />
<path d="M51313143 52819000
L52582143 52819000
" />
<path d="M45222143 55739000
L54922143 55739000
" />
<path d="M48128143 52539000
L48831143 52539000
" />
<path d="M46115143 54059000
L48831143 54059000
" />
<path d="M45032143 56620000
L55112143 56620000
" />
<path d="M45382143 55299000
L54762143 55299000
" />
<path d="M45061143 56419000
L55083143 56419000
" />
<path d="M51313143 53579000
L53592143 53579000
" />
<path d="M47562143 52819000
L48831143 52819000
" />
<path d="M45175143 55899000
L54969143 55899000
" />
<path d="M45677143 54699000
L48831143 54699000
" />
<path d="M45655143 54739000
L48831143 54739000
" />
<path d="M47633143 52779000
L48831143 52779000
" />
<path d="M45878143 54379000
L48831143 54379000
" />
<path d="M45165143 55939000
L54979143 55939000
" />
<path d="M51313143 53779000
L53788143 53779000
" />
<path d="M51313143 54659000
L54443143 54659000
" />
<path d="M51313143 53939000
L53930143 53939000
" />
<path d="M46083143 54099000
L48831143 54099000
" />
<path d="M49010143 52259000
L51134143 52259000
" />
<path d="M51313143 54579000
L54395143 54579000
" />
<path d="M51313143 53139000
L53072143 53139000
" />
<path d="M45075143 56339000
L55069143 56339000
" />
<path d="M45365143 55339000
L54779143 55339000
" />
<path d="M45527143 54979000
L54617143 54979000
" />
<path d="M45134143 56059000
L55010143 56059000
" />
<path d="M51313143 53979000
L53964143 53979000
" />
<path d="M51313143 52859000
L52651143 52859000
" />
<path d="M47947143 52619000
L48831143 52619000
" />
<path d="M51313143 52499000
L51918143 52499000
" />
<path d="M45054143 56459000
L55090143 56459000
" />
<path d="M47302143 52979000
L48831143 52979000
" />
<path d="M45851143 54419000
L48831143 54419000
" />
<path d="M46680143 53459000
L48831143 53459000
" />
<path d="M45187143 55859000
L54957143 55859000
" />
<path d="M44999143 56980000
L55145143 56980000
" />
<path d="M51313143 53659000
L53673143 53659000
" />
<path d="M45007143 56860000
L55137143 56860000
" />
<path d="M48035143 52579000
L48831143 52579000
" />
<path d="M46052143 54139000
L48831143 54139000
" />
<path d="M48226143 52499000
L48831143 52499000
" />
<path d="M45906143 54339000
L48831143 54339000
" />
<path d="M51313143 54059000
L54029143 54059000
" />
<path d="M51313143 54099000
L54061143 54099000
" />
<path d="M51313143 53499000
L53508143 53499000
" />
<path d="M47707143 52739000
L48831143 52739000
" />
<path d="M51313143 53739000
L53751143 53739000
" />
<path d="M48694143 52339000
L48831143 52339000
" />
<path d="M51332142.921856 62222539.692227 A5120000.000000 5120000.000000 0.0 1 0 48812143.078144 62222539.692227" />
<path d="M47512143 15370000
L47512143 21340000
" />
<path d="M56872143 20580000
L52572143 20580000
" />
<path d="M48472143 15080000
L47222143 15080000
" />
<path d="M57622143 17630000
L56872143 17630000
" />
<path d="M57622143 16130000
L57622143 15380000
" />
<path d="M52572143 20580000
L49332143 20580000
" />
<path d="M57632143 15370000
L47512143 15370000
" />
<path d="M50822143 15380000
L50822143 16130000
" />
<path d="M55822143 15380000
L55822143 16130000
" />
<path d="M56872143 17630000
L56872143 20580000
" />
<path d="M47522143 17630000
L48272143 17630000
" />
<path d="M47522143 15380000
L47522143 16130000
" />
<path d="M50822143 16130000
L54322143 16130000
" />
<path d="M55822143 16130000
L57622143 16130000
" />
<path d="M49322143 16130000
L49322143 15380000
" />
<path d="M47522143 16130000
L49322143 16130000
" />
<path d="M54322143 15380000
L50822143 15380000
" />
<path d="M54322143 16130000
L54322143 15380000
" />
<path d="M47222143 15080000
L47222143 16330000
" />
<path d="M57622143 15380000
L55822143 15380000
" />
<path d="M48272143 17630000
L48272143 18970000
" />
<path d="M57632143 21340000
L57632143 15370000
" />
<path d="M47512143 21340000
L57632143 21340000
" />
<path d="M49322143 15380000
L47522143 15380000
" />
<g >
</g>
<g >
</g>
<g >
</g>
<g >
</g>
<g >
</g>
<g >
</g>
<g >
</g>
<g >
</g>
<g >
</g>
<g >
</g>
<g >
</g>
<g >
</g>
<g >
</g>
<g >
</g>
<g >
</g>
</g>
<g style="fill:#000000; fill-opacity:0.0; 
stroke:#000000; stroke-width:120000.000000; stroke-opacity:1; 
stroke-linecap:round; stroke-linejoin:round;">
</g>
<g style="fill:#D0D2CD; fill-opacity:0.0; 
stroke:#D0D2CD; stroke-width:120000.000000; stroke-opacity:1; 
stroke-linecap:round; stroke-linejoin:round;">
</g>
<g style="fill:#D0D2CD; fill-opacity:0.0; 
stroke:#D0D2CD; stroke-width:100000.000000; stroke-opacity:1; 
stroke-linecap:round; stroke-linejoin:round;">
<path d="M4352143 50000
L111032143 50000
" />
<path d="M111032143 50000
L111032143 78790000
" />
<path d="M111032143 78790000
L4352143 78790000
" />
<path d="M4352143 78790000
L4352143 50000
" />
<g >
</g>
<g >
</g>
<g >
</g>
<g >
</g>
<g >
</g>
<g >
</g>
<g >
</g>
<g >
</g>
<g >
</g>
<g >
</g>
<g >
</g>
<g >
</g>
<g >
</g>
<g >
</g>
<g >
</g>
</g> 
</svg>
