<?xml version="1.0" standalone="no"?>
 <!DOCTYPE svg PUBLIC "-//W3C//DTD SVG 1.1//EN" 
 "http://www.w3.org/Graphics/SVG/1.1/DTD/svg11.dtd"> 
<svg
  xmlns:svg="http://www.w3.org/2000/svg"
  xmlns="http://www.w3.org/2000/svg"
  xmlns:xlink="http://www.w3.org/1999/xlink"
  version="1.1"
  width="11.536680cm" height="7.881620cm" viewBox="0 0 115366800 78816200">
<title>SVG Picture created as Resonator_v3-F_Courtyard.svg date 2022/11/09 21:33:10 </title>
  <desc>Picture generated by PCBNEW </desc>
<g style="fill:#000000; fill-opacity:1.000000;stroke:#000000; stroke-opacity:1.000000;
stroke-linecap:round; stroke-linejoin:round;"
 transform="translate(0 0) scale(1 1)">
</g>
<g style="fill:#000000; fill-opacity:0.0; 
stroke:#000000; stroke-width:0.000000; stroke-opacity:1; 
stroke-linecap:round; stroke-linejoin:round;">
</g>
<g style="fill:#FF26E2; fill-opacity:0.0; 
stroke:#FF26E2; stroke-width:0.000000; stroke-opacity:1; 
stroke-linecap:round; stroke-linejoin:round;">
</g>
<g style="fill:#FF26E2; fill-opacity:0.0; 
stroke:#FF26E2; stroke-width:50000.000000; stroke-opacity:1; 
stroke-linecap:round; stroke-linejoin:round;">
<path d="M52982143 37840000
L44582143 37840000
" />
<path d="M44582143 44590000
L52982143 44590000
" />
<path d="M52982143 44590000
L52982143 37840000
" />
<path d="M44582143 37840000
L44582143 44590000
" />
<path d="M18817224 21777948
L44717224 21777948
" />
<path d="M44717224 15027948
L18817224 15027948
" />
<path d="M18817224 15027948
L18817224 21777948
" />
<path d="M44717224 21777948
L44717224 15027948
" />
<path d="M36322143 39740000
L36322143 49260000
" />
<path d="M38422143 39740000
L36322143 39740000
" />
<path d="M36322143 49260000
L38422143 49260000
" />
<path d="M38422143 49260000
L38422143 39740000
" />
<circle cx="9432143.000000" cy="5130000.000000" r="3450000.000000" /> 
<path d="M31247143 30675000
L18097143 30675000
" />
<path d="M31247143 45625000
L31247143 30675000
" />
<path d="M18097143 30675000
L18097143 45625000
" />
<path d="M18097143 45625000
L31247143 45625000
" />
<path d="M19282143 50520000
L19282143 61420000
" />
<path d="M26032143 61420000
L26032143 50520000
" />
<path d="M26032143 50520000
L19282143 50520000
" />
<path d="M19282143 61420000
L26032143 61420000
" />
<circle cx="105952143.000000" cy="5130000.000000" r="3450000.000000" /> 
<circle cx="105952143.000000" cy="73710000.000000" r="3450000.000000" /> 
<circle cx="50072143.000000" cy="57260000.000000" r="5250000.000000" /> 
<circle cx="9432143.000000" cy="73710000.000000" r="3450000.000000" /> 
<path d="M47122143 21730000
L58022143 21730000
" />
<path d="M58022143 14980000
L47122143 14980000
" />
<path d="M47122143 14980000
L47122143 21730000
" />
<path d="M58022143 21730000
L58022143 14980000
" />
<g >
</g>
<g >
</g>
<g >
</g>
<g >
</g>
<g >
</g>
<g >
</g>
<g >
</g>
<g >
</g>
<g >
</g>
<g >
</g>
<g >
</g>
<g >
</g>
<g >
</g>
<g >
</g>
<g >
</g>
</g>
<g style="fill:#000000; fill-opacity:0.0; 
stroke:#000000; stroke-width:50000.000000; stroke-opacity:1; 
stroke-linecap:round; stroke-linejoin:round;">
</g>
<g style="fill:#D0D2CD; fill-opacity:0.0; 
stroke:#D0D2CD; stroke-width:50000.000000; stroke-opacity:1; 
stroke-linecap:round; stroke-linejoin:round;">
</g>
<g style="fill:#D0D2CD; fill-opacity:0.0; 
stroke:#D0D2CD; stroke-width:100000.000000; stroke-opacity:1; 
stroke-linecap:round; stroke-linejoin:round;">
<path d="M4352143 50000
L111032143 50000
" />
<path d="M111032143 50000
L111032143 78790000
" />
<path d="M111032143 78790000
L4352143 78790000
" />
<path d="M4352143 78790000
L4352143 50000
" />
<g >
</g>
<g >
</g>
<g >
</g>
<g >
</g>
<g >
</g>
<g >
</g>
<g >
</g>
<g >
</g>
<g >
</g>
<g >
</g>
<g >
</g>
<g >
</g>
<g >
</g>
<g >
</g>
<g >
</g>
</g> 
</svg>
